<svg width="1272" height="208" viewBox="0 0 1272 208" fill="none" xmlns="http://www.w3.org/2000/svg">
<path d="M123.81 42.25H166.06C158.52 77.44 151.08 112.13 143.6 147.03H107.34C112.34 123.47 117.25 100.3 122.16 77.13L120.95 76.62C108.05 100.02 95.16 123.43 82.15 147.03H60.05C57.58 122.89 55.12 98.75 52.65 74.6C52.22 74.56 51.78 74.53 51.35 74.49C46.14 98.61 40.93 122.73 35.68 147.05H21.63C28.82 111.86 36.53 77.05 43.86 42.15H85.86C87.6 61.72 89.33 81.08 91.05 100.45C91.47 100.53 91.89 100.61 92.3 100.69C102.79 81.23 113.28 61.76 123.81 42.23V42.25Z" fill="#177153"/>
<path d="M268.48 146.74C275.89 111.9 283.28 77.22 290.69 42.37C292.36 42.18 293.63 41.91 294.9 41.92C310.77 42 326.65 41.98 342.52 42.28C349.26 42.4 355.79 43.93 361.69 47.46C369.5 52.13 373.68 59.53 375.15 67.99C378.12 85.07 376.8 101.93 368.85 117.66C360.09 134.97 345.57 144.94 326.4 146.28C307.85 147.58 289.17 147.02 270.55 147.26C270.02 147.26 269.48 147 268.48 146.74ZM306.11 135.89C317.54 137.45 322.34 135.33 327.81 126.53C329.33 124.08 330.68 121.46 331.73 118.78C338.19 102.28 341.05 85.03 341.99 67.44C342.7 54.17 339.73 51.47 326.43 52.39C325.74 52.44 325.06 52.74 324 53.02C318.06 80.51 312.12 108.05 306.1 135.89H306.11Z" fill="#177153"/>
<path d="M1057.97 76.61C1059.14 80.12 1060.22 83.36 1061.54 87.31C1063.59 85.77 1065.04 84.67 1066.49 83.59C1074.5 77.59 1083.22 73.99 1093.54 74.33C1099.07 74.51 1105.65 78.27 1107.12 84.53C1107.31 85.32 1107.74 86.06 1108.29 87.41C1110.89 85.53 1113.13 83.81 1115.48 82.23C1122.73 77.36 1130.4 73.96 1139.47 74.41C1149.39 74.91 1158.77 82.93 1156.39 94.5C1152.91 111.41 1149.26 128.28 1145.66 145.16C1145.54 145.71 1145.26 146.22 1144.95 147.03H1113.55C1114.6 141.37 1115.54 135.84 1116.67 130.36C1118.74 120.27 1120.94 110.21 1123.05 100.14C1123.29 99.01 1123.39 97.84 1123.46 96.69C1123.84 90.44 1120.07 87.62 1114.39 90.19C1110.65 91.89 1107.66 94.29 1106.74 98.93C1103.84 113.58 1100.6 128.16 1097.46 142.76C1097.16 144.15 1096.73 145.52 1096.3 147.09H1066.33C1067.5 141.25 1068.57 135.76 1069.71 130.28C1071.63 121.05 1073.61 111.84 1075.54 102.62C1075.93 100.77 1076.6 98.85 1076.4 97.05C1076.14 94.75 1075.76 91.9 1074.28 90.44C1072.18 88.35 1069.12 89.18 1066.56 90.64C1062.73 92.83 1060.37 95.74 1059.48 100.41C1056.69 115.08 1053.39 129.66 1050.27 144.27C1050.06 145.23 1049.66 146.15 1049.36 147.03H1016.45C1021.45 123.39 1026.37 100.18 1031.35 76.62H1057.93L1057.97 76.61Z" fill="#177153"/>
<path d="M414.6 148.82C409.94 148.16 403.98 147.76 398.24 146.43C385.54 143.49 378.68 134.83 377.22 122.27C375.43 106.85 380.02 93.55 392.52 83.66C399.46 78.17 407.77 75.79 416.36 74.93C426.64 73.91 436.97 73.71 447.05 76.87C457.62 80.18 463.22 87.48 464.82 98.26C466.43 109.11 464.81 119.39 459.35 128.89C452.92 140.09 442.45 145.24 430.2 147.27C425.49 148.05 420.69 148.24 414.61 148.82H414.6ZM431.93 96.68C431.93 94.51 432.08 92.32 431.9 90.16C431.51 85.61 428.5 83.49 424.37 85.44C421.92 86.6 419.47 88.74 418.11 91.07C411.08 103.11 409.66 116.46 409.74 130.07C409.74 131.2 410.12 132.36 410.49 133.46C411.73 137.17 414.08 138.37 417.91 137.5C421.96 136.58 423.77 133.38 425.29 130.08C430.16 119.49 431.64 108.18 431.94 96.68H431.93Z" fill="#177153"/>
<path d="M663.39 74.03C668.44 74.55 673.53 74.85 678.53 75.65C691.41 77.69 698.8 84.89 700.87 97.77C703.16 111.98 700.26 124.95 690.27 135.78C684.42 142.12 676.76 145.21 668.48 146.81C656.78 149.07 645.08 149.34 633.46 146.2C622.88 143.34 616.23 136.45 614.19 125.86C610.87 108.66 615.26 93.82 629.67 82.95C636.96 77.45 645.75 75.68 654.63 74.64C657.5 74.3 660.45 74.59 663.36 74.59L663.4 74.03H663.39ZM668.36 96.62C668.28 95.1 668.24 92.34 667.95 89.61C667.56 85.92 665.27 84.3 661.63 84.92C658.52 85.45 656.52 87.44 654.86 89.96C649.33 98.34 647.6 107.91 646.54 117.59C646.01 122.44 646.16 127.4 646.43 132.29C646.56 134.54 647.58 136.78 650.35 137.48C653.31 138.22 655.94 137.61 657.9 135.4C659.42 133.69 660.72 131.68 661.69 129.61C666.43 119.57 667.52 108.75 668.36 96.63V96.62Z" fill="#177153"/>
<path d="M923.4 53.74H896.97C897.94 49.56 898.77 45.99 899.64 42.2H988.16C987.38 46.03 986.68 49.49 985.85 53.57H958.83C952.08 85.09 945.45 116.04 938.79 147.1H903.56C910.16 116.04 916.69 85.33 923.4 53.75V53.74Z" fill="#177153"/>
<path d="M165.75 76.52H199.61C201.27 92.36 202.9 107.95 204.54 123.53C205.01 123.66 205.49 123.79 205.96 123.92C214.54 108.11 223.12 92.3 231.75 76.41H248.13C244.72 82.66 241.61 88.5 238.38 94.26C228.36 112.09 218.36 129.93 208.23 147.7C202.61 157.56 195.88 166.67 184.79 170.73C178.61 172.99 171.88 174.08 165.3 174.86C159.73 175.53 154.02 175 147.62 175C148.45 171.45 149.22 168.19 150.03 164.75C151.46 164.63 152.58 164.48 153.71 164.45C156.76 164.36 159.83 164.48 162.87 164.24C172.22 163.49 175.59 160.2 174.9 150.89C174.11 140.21 172.47 129.59 171.04 118.96C169.28 105.88 167.34 92.83 165.53 79.76C165.4 78.81 165.66 77.8 165.76 76.51L165.75 76.52Z" fill="#177153"/>
<path d="M1193.57 113.43C1192.58 120.67 1191.36 127.36 1193.48 134.06C1194.53 137.39 1196.48 138.29 1199.89 137.57C1204.56 136.59 1207.28 133.17 1209.72 129.51C1210.92 127.71 1211.79 125.7 1212.88 123.64H1239.1C1237.62 129.53 1236.22 135.08 1234.68 141.24C1231.03 142.67 1227.38 144.54 1223.5 145.52C1210.67 148.75 1197.65 149.5 1184.57 147.12C1174.94 145.37 1167.01 140.97 1162.57 131.81C1159 124.44 1159.17 116.54 1160.48 108.77C1163.95 88.3 1178.12 79.04 1196.12 75.67C1206.58 73.71 1217.23 73.54 1227.74 75.78C1230.41 76.35 1233.04 77.36 1235.54 78.49C1242.11 81.46 1245.59 86.82 1245.91 93.85C1246.22 100.59 1244.85 107.1 1240.7 113.43H1193.56H1193.57ZM1215.58 106.62C1215.88 101.3 1216.32 96.44 1216.36 91.58C1216.39 88.71 1215.32 85.56 1212.22 85.22C1209.78 84.95 1206.49 85.74 1204.71 87.32C1199.11 92.28 1196.77 99.06 1195.44 106.62H1215.58Z" fill="#177153"/>
<path d="M855.56 80.38C854.4 85.61 853.28 90.64 852.11 95.94H831.77C831.5 93.49 831.46 91.32 830.99 89.24C830.09 85.28 827.28 83.81 823.41 85.05C819.63 86.26 817.17 89.25 816.92 92.97C816.63 97.16 817.71 99.18 822.13 100.98C825.47 102.34 829.17 102.82 832.54 104.12C837.5 106.03 843.05 107.42 847.05 110.65C856.26 118.09 855.38 133.02 845.61 140.19C841.95 142.87 837.54 145.18 833.14 146.09C815.22 149.8 797.31 149.67 779.7 143.97C779.03 143.75 778.39 143.42 776.9 142.78C777.95 137.69 779 132.57 780.11 127.2H801.69C801.82 128.68 801.93 130.07 802.08 131.45C802.52 135.57 804.68 137.76 808.72 138.22C813.46 138.76 817.46 136.74 818.83 133.1C820.24 129.38 819.29 125.82 815.32 123.88C810.79 121.66 805.88 120.18 801.05 118.61C796.43 117.11 792.04 115.43 788.91 111.4C783.81 104.83 783.77 94 788.98 87.45C793.93 81.23 800.63 77.96 808.21 76.3C823.18 73.02 837.95 73.55 852.43 78.87C853.24 79.17 853.99 79.62 855.55 80.38H855.56Z" fill="#177153"/>
<path d="M540.34 143.63C522.42 148.83 505.05 150.88 487.48 145.05C475.3 141.01 469.14 130.23 468.78 119.25C468.01 95.82 481.55 80.12 504.78 75.62C515.13 73.61 525.61 73.84 536.01 75.55C542.02 76.54 547.45 78.72 551.53 84.05C550.04 90.72 548.53 97.46 546.98 104.36H525.69C525.59 103.13 525.41 101.89 525.39 100.65C525.34 97.6 525.54 94.54 525.32 91.5C524.87 85.12 520.36 82.69 515.09 86.41C512.37 88.33 509.98 91.29 508.51 94.3C502.91 105.72 500.76 117.96 501.51 130.63C501.64 132.83 502.83 134.97 503.42 136.79C511.62 139.29 514.85 136.52 522.69 120.85H545.06C543.45 128.61 541.93 135.94 540.33 143.63H540.34Z" fill="#177153"/>
<path d="M592.79 135.05C596.92 135.78 599.88 136.3 603.68 136.96C603.16 140.13 602.62 143.43 602.02 147.07C591.7 148.53 581.57 149.41 571.53 147.32C563.74 145.7 559.97 140.73 559.76 132.74C559.66 129.14 560.05 125.47 560.75 121.93C562.68 112.11 564.92 102.36 566.97 92.56C567.34 90.77 567.36 88.91 567.59 86.49H555.39C556.1 82.78 556.68 79.72 557.38 76.05C572.07 73.57 583.73 66.02 592.01 53.74H608.37C606.9 61.1 605.47 68.22 603.89 76.16H616.88C615.99 80.04 615.3 83.08 614.55 86.35H601.65C598.69 102.43 593.77 117.95 592.81 135.04L592.79 135.05Z" fill="#177153"/>
<path d="M734.81 147.16H701.72C706.27 123.45 711.62 100.28 716.52 76.62H742.96C743.96 80.53 744.98 84.49 746.31 89.7C756.73 75.96 768.75 70.24 785.26 77.66C782.88 88.95 780.56 99.94 778.18 111.27H760.95C760.56 108.28 760.23 105.43 759.8 102.59C759.56 101.02 759.31 99.42 758.81 97.92C757.29 93.39 753.8 91.96 749.54 94.12C748.26 94.77 747.14 95.71 745.7 96.68C742.09 113.41 738.46 130.24 734.82 147.15L734.81 147.16Z" fill="#177153"/>
<path d="M1004.74 147.1H971.65C976.68 123.38 981.62 100.06 986.62 76.51H1020.07C1014.91 100.28 1009.85 123.6 1004.74 147.1Z" fill="#177153"/>
<path d="M1006 69.37C1003.1 68.55 999.98 68.17 997.35 66.83C990.19 63.16 988.99 51.82 995.11 46.43C1001.32 40.96 1008.69 39.92 1016.28 42.51C1025.37 45.61 1027.34 56.81 1020.39 63.59C1016.39 67.49 1011.53 68.85 1006 69.38V69.37Z" fill="#177153"/>
<path d="M1217.59 60.15C1206.16 60.12 1197.9 51.47 1197.63 39.9C1197.43 31.28 1205.68 19.88 1217.88 20.32C1229.22 20.73 1237.66 29.16 1237.62 40.86C1237.58 51.6 1228.67 60.19 1217.58 60.15H1217.59ZM1217.64 27.06C1209.82 27.01 1204.51 32.53 1204.5 40.71C1204.5 47.88 1210.32 53.54 1217.67 53.51C1225.19 53.47 1230.86 47.78 1230.89 40.25C1230.92 32.63 1225.38 27.12 1217.64 27.07V27.06Z" fill="#E93E3C"/>
<path d="M1159.59 60.15C1148.16 60.12 1139.9 51.47 1139.63 39.9C1139.43 31.28 1147.68 19.88 1159.88 20.32C1171.22 20.73 1179.66 29.16 1179.62 40.86C1179.58 51.6 1170.67 60.19 1159.58 60.15H1159.59ZM1159.65 27.06C1151.83 27.01 1146.52 32.53 1146.51 40.71C1146.51 47.88 1152.33 53.54 1159.68 53.51C1167.2 53.47 1172.87 47.78 1172.9 40.25C1172.93 32.63 1167.39 27.12 1159.65 27.07V27.06Z" fill="#F3A927"/>
<path d="M1106.59 60.15C1095.16 60.12 1086.9 51.47 1086.63 39.9C1086.43 31.28 1094.68 19.88 1106.88 20.32C1118.22 20.73 1126.66 29.16 1126.62 40.86C1126.58 51.6 1117.67 60.19 1106.58 60.15H1106.59ZM1106.64 27.06C1098.82 27.01 1093.51 32.53 1093.5 40.71C1093.5 47.88 1099.32 53.54 1106.67 53.51C1114.19 53.47 1119.86 47.78 1119.89 40.25C1119.92 32.63 1114.38 27.12 1106.64 27.07V27.06Z" fill="#307AFA"/>
</svg>
