<svg width="33" height="33" viewBox="0 0 33 33" fill="none" xmlns="http://www.w3.org/2000/svg">
<path d="M24.7502 12.375C25.5878 12.375 26.4055 12.1201 27.0947 11.6441C27.7839 11.168 28.3118 10.4935 28.6083 9.71012C28.9048 8.92677 28.9557 8.07171 28.7545 7.25867C28.5532 6.44564 28.1091 5.71314 27.4814 5.15859C26.8537 4.60404 26.072 4.25372 25.2404 4.15422C24.4087 4.05471 23.5665 4.21074 22.8257 4.60154C22.0849 4.99235 21.4805 5.59942 21.0931 6.34202C20.7057 7.08462 20.5535 7.92756 20.6568 8.75875L11.1143 13.53C10.5317 12.9681 9.79653 12.5901 9.00054 12.443C8.20455 12.2959 7.38287 12.3863 6.63786 12.7028C5.89286 13.0194 5.25745 13.5481 4.81079 14.2232C4.36414 14.8983 4.12598 15.6898 4.12598 16.4993C4.12598 17.3088 4.36414 18.1004 4.81079 18.7754C5.25745 19.4505 5.89286 19.9793 6.63786 20.2958C7.38287 20.6124 8.20455 20.7027 9.00054 20.5556C9.79653 20.4086 10.5317 20.0305 11.1143 19.4686L20.6568 24.2399C20.5365 25.2055 20.7614 26.1825 21.2918 26.9983C21.8221 27.8141 22.6238 28.4161 23.5551 28.698C24.4865 28.9799 25.4875 28.9235 26.3812 28.5388C27.275 28.154 28.0039 27.4657 28.4393 26.5955C28.8746 25.7253 28.9883 24.7292 28.7603 23.7832C28.5323 22.8373 27.9772 22.0024 27.1931 21.4261C26.4091 20.8499 25.4466 20.5693 24.4757 20.6341C23.5048 20.6988 22.588 21.1047 21.8875 21.78L12.345 17.0088C12.3865 16.6709 12.3865 16.3291 12.345 15.9913L21.8875 11.22C22.6272 11.935 23.6365 12.375 24.7502 12.375Z" fill="black"/>
</svg>
