<svg width="436" height="398" viewBox="0 0 436 398" fill="none" xmlns="http://www.w3.org/2000/svg">
<path d="M251.73 41.277C258.396 36.746 265.926 33.406 273.826 31.075C281.736 28.743 290.053 27.587 298.465 27.428C306.919 27.292 315.315 28.438 323.303 30.072C331.316 31.715 338.981 33.869 346.416 35.911C353.85 37.964 361.054 39.908 368.106 41.234C371.631 41.899 375.104 42.489 378.553 42.889C382.004 43.292 385.395 43.57 388.928 43.638C395.935 43.783 402.94 43.374 409.883 41.893C413.358 41.153 416.833 40.151 420.292 38.741C423.764 37.342 427.174 35.507 430.714 33.278C428.301 41.305 422.162 48.285 414.804 53.072C407.397 57.901 398.853 60.744 390.269 62.033C385.997 62.679 381.541 62.956 377.184 62.838C372.822 62.707 368.53 62.218 364.36 61.461C356.012 59.935 348.132 57.588 340.594 55.091C325.499 50.078 311.684 44.45 297.37 41.947C290.174 40.638 282.748 40.029 275.181 40.057C267.606 40.083 259.922 40.807 252.019 42.007C251.799 42.042 251.593 41.892 251.558 41.672C251.534 41.515 251.607 41.363 251.73 41.277Z" fill="#177153"/>
<path d="M235.647 45.93C242.763 42.146 250.61 39.638 258.715 38.174C266.831 36.71 275.224 36.458 283.603 37.209C292.022 37.986 300.246 40.032 308.011 42.519C315.799 45.017 323.187 47.986 330.358 50.82C337.527 53.663 344.479 56.374 351.346 58.454C354.778 59.496 358.168 60.458 361.553 61.227C364.94 62.001 368.281 62.643 371.787 63.092C378.737 63.993 385.745 64.342 392.808 63.619C396.343 63.259 399.905 62.638 403.497 61.61C407.1 60.594 410.688 59.138 414.448 57.304C411.182 65.024 404.325 71.3 396.494 75.265C388.609 79.267 379.807 81.169 371.135 81.525C366.818 81.706 362.359 81.5 358.039 80.913C353.717 80.312 349.503 79.363 345.439 78.16C337.305 75.742 329.724 72.557 322.5 69.262C308.034 62.648 294.908 55.562 280.948 51.528C273.935 49.45 266.618 48.043 259.093 47.253C251.56 46.461 243.842 46.351 235.856 46.691C235.633 46.702 235.444 46.53 235.434 46.308C235.426 46.146 235.515 46.002 235.647 45.93Z" fill="#177153"/>
<path d="M226.599 50.963C233.781 48.006 241.543 46.342 249.454 45.703C257.376 45.065 265.448 45.617 273.414 47.127C281.414 48.668 289.108 51.406 296.32 54.525C303.553 57.656 310.358 61.201 316.968 64.596C323.574 68 329.985 71.256 336.375 73.899C339.568 75.222 342.728 76.465 345.902 77.523C349.078 78.585 352.221 79.516 355.54 80.278C362.12 81.799 368.808 82.796 375.649 82.769C379.073 82.758 382.548 82.498 386.089 81.852C389.64 81.218 393.219 80.16 396.998 78.757C393.137 85.852 385.969 91.223 378.084 94.286C370.144 97.379 361.524 98.373 353.173 97.894C349.016 97.66 344.759 97.042 340.672 96.07C336.584 95.085 332.633 93.777 328.848 92.239C321.276 89.152 314.306 85.382 307.69 81.539C294.442 73.83 282.522 65.794 269.516 60.607C262.987 57.952 256.103 55.911 248.961 54.444C241.811 52.973 234.42 52.139 226.729 51.711C226.515 51.7 226.35 51.518 226.36 51.304C226.367 51.149 226.466 51.019 226.599 50.963Z" fill="#177153"/>
<path d="M229.707 52.625C235.663 51.116 241.881 50.695 248.066 51.1C254.259 51.507 260.398 52.87 266.316 54.977C272.257 57.112 277.79 60.157 282.897 63.446C288.019 66.748 292.752 70.327 297.355 73.765C301.955 77.21 306.947 80.125 311.49 82.944C313.76 84.355 316.015 85.698 318.308 86.898C320.602 88.101 322.889 89.197 325.336 90.179C330.186 92.135 335.194 93.69 340.468 94.455C343.107 94.84 345.821 95.034 348.641 94.931C351.468 94.839 353.854 94.807 356.966 94.133C352.974 99.288 346.681 102.703 340.168 104.214C333.609 105.743 326.826 105.536 320.462 104.2C317.293 103.538 314.103 102.561 311.095 101.325C308.087 100.078 305.232 98.592 302.538 96.944C297.148 93.638 292.321 89.862 287.776 86.07C278.678 78.465 270.651 70.755 261.377 65.167C256.729 62.321 251.719 59.921 246.429 57.942C241.133 55.96 235.56 54.452 229.697 53.231C229.533 53.198 229.432 53.035 229.472 52.867C229.501 52.745 229.596 52.654 229.707 52.625Z" fill="#177153"/>
<path d="M236.32 52.454C267.953 59.107 290.552 92.696 310.38 100.458C310.38 100.458 291.468 111.124 271.508 90.283C253.768 71.76 247.441 64.944 235.049 59.596L236.32 52.454Z" fill="#177153"/>
<path d="M234.95 58.128C255.581 67.364 264.857 91.082 277.258 99.205C277.258 99.205 260.087 104.512 249.527 87.869C240.142 73.077 237.056 68.096 229.379 62.696L234.95 58.128Z" fill="#177153"/>
<path opacity="0.28" d="M267.254 96.36C262.559 95.124 258.679 92.079 255.679 87.262L255.229 86.539C250.41 78.803 247.24 73.713 244.055 69.756C250.828 75.013 256.205 82.089 261.103 88.535C263.174 91.261 265.197 93.923 267.254 96.36Z" fill="white"/>
<path d="M231.624 62.628C246.886 72.9 246.092 89.353 253.343 96.967C253.343 96.967 239.553 99.21 234.95 86.01C230.86 74.278 230.352 70.552 225.768 64.434L231.624 62.628Z" fill="#177153"/>
<path opacity="0.28" d="M246.278 93.686C244.24 92.504 242.426 90.542 241.319 87.366C240.426 84.807 239.707 82.634 239.072 80.716C238.356 78.555 237.74 76.693 237.111 74.994C240.865 79.529 242.83 84.703 244.748 89.758C245.254 91.092 245.753 92.407 246.278 93.686Z" fill="white"/>
<g opacity="0.44">
<path opacity="0.42" d="M383.469 58.17C386.579 58.17 389.696 57.908 392.739 57.39C400.413 56.092 407.191 53.316 412.887 49.136C414.766 47.76 416.492 46.222 418.034 44.569C416.009 45.316 413.899 45.95 411.661 46.486C406.402 47.748 400.785 48.362 394.488 48.362C393.686 48.362 392.883 48.352 392.088 48.334C392.065 48.334 392.041 48.333 392.018 48.332C387.196 48.225 382.445 49.723 378.447 52.757C376.453 54.27 374.492 55.723 372.565 57.115C375.713 57.688 378.832 58.044 381.843 58.145C382.383 58.162 382.925 58.17 383.469 58.17Z" fill="white"/>
<path opacity="0.42" d="M346.773 73.656C350.778 74.842 354.787 75.719 358.672 76.259C359.275 76.341 359.881 76.415 360.489 76.481C363.968 76.859 367.484 76.977 370.943 76.832C379.668 76.474 387.549 74.538 394.373 71.074C396.624 69.934 398.721 68.615 400.624 67.158C398.277 67.655 395.849 68.029 393.287 68.289C387.268 68.905 380.918 68.832 373.874 68.067C372.977 67.969 372.08 67.862 371.192 67.747C370.506 67.659 369.508 67.491 368.336 67.274C359.714 65.676 350.787 66.949 342.979 70.941C342.38 71.247 341.785 71.548 341.193 71.844C343.016 72.483 344.879 73.093 346.773 73.656Z" fill="white"/>
<path opacity="0.42" d="M330.551 88.047C334.28 89.563 338.042 90.782 341.717 91.667C342.287 91.803 342.861 91.931 343.439 92.052C346.739 92.743 350.1 93.188 353.431 93.376C361.832 93.857 369.573 92.744 376.444 90.067C378.71 89.187 380.846 88.12 382.808 86.902C380.511 87.157 378.146 87.286 375.665 87.294C369.834 87.316 363.752 86.647 357.069 85.248C356.218 85.07 355.367 84.882 354.528 84.688C351.346 83.959 348.149 83.046 344.471 81.816C344.369 81.782 344.258 81.744 344.14 81.703C335.74 78.785 326.615 78.727 318.202 81.608C317.969 81.688 317.738 81.766 317.507 81.844C321.48 83.968 325.903 86.152 330.551 88.047Z" fill="white"/>
<path opacity="0.42" d="M304.454 93.83C307.109 95.454 309.831 96.849 312.535 97.969C312.955 98.142 313.379 98.309 313.806 98.47C316.249 99.394 318.774 100.132 321.313 100.663C327.715 102.008 333.838 102.019 339.514 100.696C341.386 100.262 343.184 99.665 344.87 98.93C343.064 98.867 341.224 98.698 339.312 98.419C334.818 97.766 330.229 96.54 325.282 94.668C324.652 94.43 324.024 94.184 323.405 93.934C321.058 92.993 318.727 91.905 316.071 90.512C315.985 90.467 315.891 90.417 315.79 90.362C309.937 87.191 303.229 86.033 296.645 87.011C296.102 87.092 295.566 87.166 295.036 87.236C297.855 89.429 301.042 91.738 304.454 93.83Z" fill="white"/>
<path opacity="0.42" d="M297.278 98.475C295.038 96.915 292.786 95.202 290.511 93.393C286.426 90.144 281.518 88.136 276.338 87.502C275.957 87.456 275.582 87.406 275.214 87.353C282.138 94.464 289.554 98.207 297.278 98.475Z" fill="white"/>
</g>
<path opacity="0.38" d="M388.928 43.638C385.395 43.57 382.004 43.293 378.553 42.889C375.105 42.489 371.631 41.899 368.106 41.234C361.054 39.908 353.85 37.964 346.416 35.911C338.981 33.868 331.316 31.714 323.303 30.072C315.315 28.438 306.918 27.292 298.465 27.428C290.054 27.587 281.737 28.743 273.826 31.075C267.477 32.948 261.376 35.487 255.761 38.758C248.706 40.27 241.895 42.608 235.647 45.93C235.515 46.002 235.426 46.146 235.434 46.306C235.445 46.529 235.634 46.7 235.856 46.689C238.169 46.59 240.458 46.535 242.728 46.518C237.161 47.408 231.731 48.85 226.599 50.963C226.466 51.019 226.367 51.149 226.359 51.303C226.348 51.517 226.513 51.7 226.728 51.711C228.533 51.811 230.32 51.936 232.092 52.084C231.293 52.246 230.497 52.425 229.707 52.625C229.596 52.654 229.501 52.745 229.473 52.866C229.434 53.034 229.535 53.197 229.698 53.23C231.814 53.671 233.88 54.166 235.921 54.69L235.28 58.291C235.168 58.24 235.063 58.179 234.95 58.129L229.379 62.697C229.586 62.843 229.788 62.988 229.989 63.133L225.768 64.435C229.913 69.967 230.734 73.563 233.874 82.869C231.826 67.782 242.362 75.076 242.362 75.076C239.581 61.778 248.586 68.385 254.217 73.139C253.282 72.088 252.311 71.06 251.32 70.045C256.338 74.449 261.948 80.3 269.953 88.661C269.623 86.8 270.983 82.609 293.862 88.978C293.862 88.978 291.807 80.878 314.696 84.263C314.696 84.263 310.586 75.397 336.537 75.075C336.537 75.075 332.427 66.612 364.463 61.898C364.463 61.898 364.462 61.883 364.462 61.855C363.493 61.656 362.525 61.449 361.553 61.227C358.168 60.457 354.778 59.495 351.346 58.454C350.816 58.294 350.284 58.123 349.753 57.955C354.471 59.324 359.329 60.545 364.359 61.464C364.401 61.471 364.444 61.477 364.485 61.485C364.729 59.373 367.45 49.634 396.472 43.554C393.961 43.668 391.444 43.691 388.928 43.638Z" fill="#177153"/>
<path d="M269.615 26.952C309.937 20.176 349.069 46.744 376.002 46.726C376.002 46.726 358.658 68.021 325.528 52.698C296.083 39.08 285.485 33.976 268.422 33.401L269.615 26.952Z" fill="#177153"/>
<path opacity="0.32" d="M359.659 50.442C350.3 53.743 339.663 52.691 328.021 47.306L325.707 46.236C312.091 39.936 302.388 35.446 293.935 32.434C308.771 34.147 323.285 38.992 336.629 43.448C344.607 46.112 352.336 48.693 359.659 50.442Z" fill="white"/>
<path d="M247.361 28.655C288.203 26.723 323.898 57.757 350.641 60.942C350.641 60.942 330.888 80.023 299.815 60.868C272.198 43.844 262.283 37.516 245.41 34.916L247.361 28.655Z" fill="#177153"/>
<path opacity="0.32" d="M333.972 62.688C324.287 64.853 313.851 62.542 302.932 55.811L300.762 54.473C287.992 46.598 278.892 40.986 270.857 36.99C285.384 40.456 299.218 46.993 311.938 53.003C319.542 56.598 326.909 60.08 333.972 62.688Z" fill="white"/>
<path d="M248.246 31.813C246.665 32.785 245.131 33.832 243.66 34.964C242.372 35.955 241.143 37.023 239.968 38.147C249.527 43.033 258.479 50.648 275.425 64.842C301.381 86.585 322.068 71.716 322.068 71.716C301.627 66.203 277.961 41.481 248.246 31.813Z" fill="#177153"/>
<path opacity="0.32" d="M306.533 71.087C297.353 71.777 288.083 68.259 278.962 60.618L277.149 59.1C266.482 50.162 258.881 43.792 252.041 39.048C264.911 44.175 276.734 52.027 287.604 59.248C294.103 63.565 300.399 67.747 306.533 71.087Z" fill="white"/>
<path d="M240.519 37.638C238.826 39.202 237.244 40.884 235.852 42.722C234.901 43.978 234.044 45.301 233.281 46.676C239.125 51.994 245.804 59.032 255.278 68.945C278.542 93.288 300.414 80.668 300.414 80.668C282.917 73.834 264.467 51.387 240.519 37.638Z" fill="#177153"/>
<path opacity="0.32" d="M285.21 78.414C276.115 78.138 267.368 73.668 259.193 65.114L257.568 63.414C248.008 53.407 241.196 46.276 234.962 40.841C247.082 47.288 257.891 56.336 267.829 64.656C273.77 69.631 279.526 74.45 285.21 78.414Z" fill="white"/>
<path opacity="0.42" d="M282.79 42.671C323.762 42.905 362.948 58.47 403.176 42.996C398.439 43.571 393.684 43.738 388.927 43.639C385.394 43.571 382.003 43.293 378.552 42.89C376.215 42.619 373.865 42.256 371.497 41.846C373.351 41.945 375.213 42.023 377.095 42.046C382.723 42.142 388.504 41.702 394.2 40.6C397.043 40.022 399.857 39.269 402.599 38.339C405.342 37.411 407.995 36.257 410.549 34.98C415.656 32.402 420.3 29.183 424.491 25.609C428.672 22.012 436.273 12.671 435.898 12.115C429.735 15.864 416.067 22.72 406.696 25.444C397.333 28.231 387.84 28.424 378.071 27.132C375.627 26.823 373.166 26.424 370.688 25.966C368.207 25.532 365.707 25.046 363.189 24.521L347.854 21.246C337.486 19.047 326.812 17.095 315.993 15.896C310.588 15.259 305.142 14.848 299.691 14.589C298.327 14.54 296.964 14.472 295.599 14.44C294.238 14.402 292.885 14.358 291.43 14.371C288.577 14.344 285.694 14.476 282.813 14.691C277.041 15.172 271.225 16.166 265.514 17.887C259.812 19.606 254.221 22.059 249.106 25.358C246.547 26.998 244.117 28.851 241.864 30.888C239.609 32.92 237.497 35.103 235.639 37.47C232.427 41.466 229.871 45.878 227.934 50.447C227.489 50.619 227.039 50.781 226.598 50.962C226.465 51.018 226.366 51.148 226.358 51.302C226.347 51.516 226.512 51.699 226.727 51.71C226.954 51.722 227.177 51.739 227.403 51.752C227.26 52.115 227.11 52.476 226.974 52.84C224.955 58.267 223.791 63.867 223.359 69.423C223.148 72.203 223.116 74.975 223.277 77.722C223.444 80.464 223.764 83.2 224.416 85.846L224.418 85.854C224.453 85.997 224.566 86.114 224.719 86.149C224.935 86.198 225.15 86.062 225.198 85.846C226.349 80.723 227.883 75.848 229.765 71.213C230.622 73.174 231.363 75.331 232.273 78.07C236.815 65.464 249.64 42.481 282.79 42.671Z" fill="#5C5C5C"/>
<path d="M224.417 85.847C223.765 83.201 223.445 80.464 223.278 77.723C223.117 74.976 223.149 72.204 223.36 69.424C223.792 63.869 224.956 58.268 226.975 52.841C228.995 47.423 231.87 42.162 235.64 37.471C237.499 35.104 239.61 32.921 241.865 30.889C244.118 28.851 246.548 26.999 249.107 25.359C254.222 22.06 259.813 19.607 265.515 17.888C271.225 16.167 277.042 15.174 282.814 14.692C285.695 14.477 288.578 14.345 291.431 14.372C292.886 14.359 294.239 14.402 295.6 14.441C296.965 14.473 298.328 14.541 299.692 14.59C305.144 14.849 310.589 15.26 315.994 15.897C326.813 17.096 337.486 19.049 347.855 21.247L363.19 24.522C365.708 25.046 368.208 25.532 370.689 25.967C373.167 26.425 375.628 26.823 378.072 27.133C387.841 28.424 397.334 28.232 406.697 25.445C416.069 22.721 429.736 15.865 435.899 12.116C436.273 12.672 428.673 22.013 424.492 25.61C420.301 29.184 415.657 32.404 410.55 34.981C407.996 36.259 405.344 37.413 402.6 38.34C399.859 39.271 397.045 40.023 394.201 40.601C388.505 41.702 382.724 42.143 377.096 42.047C374.279 42.012 371.493 41.88 368.74 41.689C365.99 41.474 363.274 41.192 360.586 40.888C355.206 40.299 349.951 39.501 344.754 38.772C334.367 37.269 324.209 35.847 314.044 34.925C308.962 34.484 303.889 34.115 298.809 33.88C297.539 33.832 296.27 33.764 294.999 33.731C293.726 33.692 292.444 33.652 291.263 33.638C288.845 33.574 286.457 33.655 284.075 33.733C274.59 34.21 265.431 35.94 257.342 39.82C249.223 43.616 242.213 49.731 236.815 57.769C235.453 59.765 234.233 61.889 233.053 64.078C231.917 66.283 230.828 68.561 229.88 70.924C227.943 75.646 226.375 80.621 225.2 85.85C225.151 86.066 224.937 86.202 224.721 86.153C224.568 86.119 224.455 86.001 224.42 85.858L224.417 85.847Z" fill="#177153"/>
<path opacity="0.45" d="M229.425 60.918C229.947 58.72 230.598 56.57 231.376 54.479C233.316 49.276 235.982 44.543 239.3 40.414C240.916 38.357 242.779 36.388 245.009 34.379C247.063 32.52 249.293 30.817 251.64 29.315C256.155 26.402 261.278 24.072 266.871 22.386C271.893 20.872 277.388 19.858 283.204 19.374C285.974 19.168 288.423 19.067 290.677 19.067L291.393 19.071L291.977 19.069C293.06 19.069 294.095 19.099 295.129 19.128L295.467 19.138C296.316 19.159 297.143 19.192 297.969 19.225L299.52 19.285C305.243 19.558 310.457 19.976 315.445 20.564C324.795 21.6 334.78 23.278 346.881 25.844L362.209 29.118C364.981 29.694 367.487 30.177 369.88 30.595C372.608 31.099 375.1 31.493 377.483 31.794C381.578 32.336 385.389 32.6 389.124 32.6C395.858 32.6 402.045 31.732 408.039 29.948C409.595 29.496 411.146 28.984 412.707 28.408C411.296 29.271 409.871 30.066 408.436 30.79C405.855 32.081 403.453 33.097 401.098 33.893C398.58 34.747 395.946 35.456 393.267 36.001C388.589 36.905 383.65 37.365 378.6 37.365C378.125 37.365 377.65 37.36 377.175 37.353C374.624 37.322 371.974 37.208 369.067 37.005C366.751 36.824 364.295 36.582 361.114 36.222C356.974 35.769 352.844 35.18 348.85 34.61C348.85 34.61 346.522 34.278 345.407 34.122C334.986 32.614 324.773 31.182 314.469 30.248C308.747 29.751 303.698 29.405 299.028 29.188L297.666 29.131C296.822 29.094 295.974 29.058 295.125 29.035L294.76 29.024C293.578 28.988 292.404 28.953 291.315 28.941C290.733 28.925 290.078 28.918 289.426 28.918C287.589 28.918 285.792 28.977 284.056 29.034L283.92 29.039C272.67 29.603 263.32 31.745 255.312 35.585C246.49 39.71 238.742 46.477 232.918 55.15C231.792 56.796 230.696 58.606 229.425 60.918Z" fill="#E6F8FF"/>
<path d="M184.27 41.277C177.604 36.746 170.074 33.406 162.174 31.075C154.264 28.743 145.947 27.587 137.535 27.428C129.081 27.292 120.685 28.438 112.697 30.072C104.684 31.715 97.019 33.869 89.584 35.911C82.15 37.964 74.946 39.908 67.894 41.234C64.37 41.899 60.896 42.489 57.447 42.889C53.996 43.292 50.605 43.57 47.072 43.638C40.065 43.783 33.06 43.374 26.117 41.893C22.642 41.153 19.167 40.151 15.708 38.741C12.236 37.342 8.82601 35.507 5.28601 33.278C7.69901 41.305 13.838 48.285 21.196 53.072C28.603 57.901 37.147 60.744 45.731 62.033C50.003 62.679 54.459 62.956 58.816 62.838C63.178 62.707 67.469 62.218 71.64 61.461C79.988 59.935 87.868 57.588 95.406 55.091C110.501 50.078 124.316 44.45 138.63 41.947C145.826 40.638 153.252 40.029 160.819 40.057C168.394 40.083 176.078 40.807 183.981 42.007C184.201 42.042 184.407 41.892 184.442 41.672C184.466 41.515 184.393 41.363 184.27 41.277Z" fill="#177153"/>
<path d="M200.353 45.93C193.237 42.146 185.39 39.638 177.285 38.174C169.169 36.71 160.776 36.458 152.396 37.209C143.977 37.986 135.754 40.032 127.988 42.519C120.2 45.017 112.812 47.986 105.641 50.82C98.472 53.663 91.52 56.374 84.653 58.454C81.221 59.496 77.831 60.458 74.446 61.227C71.058 62.001 67.718 62.643 64.212 63.092C57.262 63.993 50.254 64.342 43.191 63.619C39.656 63.259 36.094 62.638 32.502 61.61C28.899 60.594 25.311 59.138 21.551 57.304C24.817 65.024 31.673 71.3 39.505 75.265C47.39 79.267 56.192 81.169 64.864 81.525C69.181 81.706 73.64 81.5 77.96 80.913C82.282 80.312 86.496 79.363 90.56 78.16C98.694 75.742 106.275 72.557 113.499 69.262C127.964 62.648 141.091 55.562 155.051 51.528C162.064 49.45 169.381 48.043 176.906 47.253C184.439 46.461 192.157 46.351 200.143 46.691C200.365 46.702 200.554 46.53 200.565 46.308C200.574 46.146 200.485 46.002 200.353 45.93Z" fill="#177153"/>
<path d="M209.401 50.963C202.219 48.006 194.457 46.342 186.546 45.703C178.624 45.065 170.552 45.617 162.586 47.127C154.585 48.668 146.892 51.406 139.68 54.525C132.447 57.656 125.642 61.201 119.032 64.596C112.426 68 106.015 71.256 99.625 73.899C96.432 75.222 93.272 76.465 90.098 77.523C86.923 78.585 83.779 79.516 80.46 80.278C73.88 81.799 67.192 82.796 60.351 82.769C56.927 82.758 53.452 82.498 49.911 81.852C46.36 81.218 42.781 80.16 39.002 78.757C42.863 85.852 50.031 91.223 57.916 94.286C65.856 97.379 74.476 98.373 82.827 97.894C86.984 97.66 91.241 97.042 95.328 96.07C99.416 95.085 103.368 93.777 107.152 92.239C114.724 89.152 121.694 85.382 128.31 81.539C141.558 73.83 153.477 65.794 166.484 60.607C173.013 57.952 179.897 55.911 187.039 54.444C194.189 52.973 201.58 52.139 209.271 51.711C209.485 51.7 209.65 51.518 209.64 51.304C209.633 51.149 209.534 51.019 209.401 50.963Z" fill="#177153"/>
<path d="M206.293 52.625C200.337 51.116 194.119 50.695 187.934 51.1C181.741 51.507 175.602 52.87 169.684 54.977C163.743 57.112 158.21 60.157 153.102 63.446C147.98 66.748 143.248 70.327 138.644 73.765C134.044 77.21 129.052 80.125 124.509 82.944C122.239 84.355 119.984 85.698 117.691 86.898C115.397 88.101 113.11 89.197 110.663 90.179C105.813 92.135 100.805 93.69 95.531 94.455C92.892 94.84 90.178 95.034 87.358 94.931C84.532 94.839 82.145 94.807 79.033 94.133C83.025 99.288 89.318 102.703 95.831 104.214C102.39 105.743 109.173 105.536 115.536 104.2C118.705 103.538 121.895 102.561 124.903 101.325C127.911 100.078 130.766 98.592 133.46 96.944C138.849 93.638 143.677 89.862 148.221 86.07C157.319 78.465 165.347 70.755 174.62 65.167C179.268 62.321 184.278 59.921 189.568 57.942C194.864 55.96 200.437 54.452 206.3 53.231C206.463 53.198 206.564 53.035 206.525 52.867C206.499 52.745 206.404 52.654 206.293 52.625Z" fill="#177153"/>
<path d="M199.68 52.454C168.047 59.107 145.448 92.696 125.62 100.458C125.62 100.458 144.532 111.124 164.492 90.283C182.232 71.76 188.559 64.944 200.951 59.596L199.68 52.454Z" fill="#177153"/>
<path d="M201.05 58.128C180.419 67.364 171.143 91.082 158.742 99.205C158.742 99.205 175.913 104.512 186.473 87.869C195.858 73.077 198.944 68.096 206.621 62.696L201.05 58.128Z" fill="#177153"/>
<path opacity="0.28" d="M168.746 96.36C173.44 95.124 177.32 92.079 180.321 87.262L180.771 86.539C185.589 78.803 188.76 73.713 191.945 69.756C185.172 75.013 179.795 82.089 174.897 88.535C172.826 91.261 170.803 93.923 168.746 96.36Z" fill="white"/>
<path d="M204.376 62.628C189.114 72.9 189.908 89.353 182.657 96.967C182.657 96.967 196.447 99.21 201.05 86.01C205.14 74.278 205.648 70.552 210.232 64.434L204.376 62.628Z" fill="#177153"/>
<path opacity="0.28" d="M189.722 93.686C191.76 92.504 193.574 90.542 194.681 87.366C195.574 84.807 196.293 82.634 196.928 80.716C197.644 78.555 198.26 76.693 198.889 74.994C195.135 79.529 193.17 84.703 191.252 89.758C190.746 91.092 190.246 92.407 189.722 93.686Z" fill="white"/>
<g opacity="0.44">
<path opacity="0.42" d="M52.531 58.17C49.421 58.17 46.304 57.908 43.261 57.39C35.587 56.092 28.809 53.316 23.113 49.136C21.233 47.76 19.508 46.222 17.966 44.569C19.992 45.316 22.101 45.95 24.34 46.486C29.599 47.748 35.216 48.362 41.513 48.362C42.315 48.362 43.118 48.352 43.913 48.334C43.936 48.334 43.96 48.333 43.983 48.332C48.805 48.225 53.556 49.723 57.554 52.757C59.548 54.27 61.509 55.723 63.436 57.115C60.288 57.688 57.169 58.044 54.158 58.145C53.617 58.162 53.075 58.17 52.531 58.17Z" fill="white"/>
<path opacity="0.42" d="M89.227 73.656C85.222 74.842 81.213 75.719 77.328 76.259C76.725 76.341 76.119 76.415 75.511 76.481C72.032 76.859 68.516 76.977 65.057 76.832C56.332 76.474 48.451 74.538 41.627 71.074C39.376 69.934 37.279 68.615 35.377 67.158C37.724 67.655 40.152 68.029 42.714 68.289C48.733 68.905 55.083 68.832 62.127 68.067C63.024 67.969 63.921 67.862 64.808 67.747C65.494 67.659 66.492 67.491 67.664 67.274C76.286 65.676 85.213 66.949 93.021 70.941C93.62 71.247 94.215 71.548 94.807 71.844C92.984 72.483 91.121 73.093 89.227 73.656Z" fill="white"/>
<path opacity="0.42" d="M105.449 88.047C101.72 89.563 97.958 90.782 94.283 91.667C93.712 91.803 93.139 91.931 92.561 92.052C89.261 92.743 85.9 93.188 82.569 93.376C74.168 93.857 66.427 92.744 59.556 90.067C57.29 89.187 55.154 88.12 53.192 86.902C55.489 87.157 57.853 87.286 60.335 87.294C66.165 87.316 72.248 86.647 78.931 85.248C79.783 85.07 80.633 84.882 81.473 84.688C84.655 83.959 87.852 83.046 91.53 81.816C91.632 81.782 91.743 81.744 91.861 81.703C100.261 78.785 109.386 78.727 117.799 81.608C118.032 81.688 118.263 81.766 118.495 81.844C114.52 83.968 110.097 86.152 105.449 88.047Z" fill="white"/>
<path opacity="0.42" d="M131.546 93.83C128.891 95.454 126.169 96.849 123.465 97.969C123.045 98.142 122.621 98.309 122.194 98.47C119.751 99.394 117.226 100.132 114.687 100.663C108.285 102.008 102.162 102.019 96.486 100.696C94.614 100.262 92.816 99.665 91.13 98.93C92.936 98.867 94.776 98.698 96.688 98.419C101.182 97.766 105.771 96.54 110.718 94.668C111.348 94.43 111.976 94.184 112.595 93.934C114.942 92.993 117.273 91.905 119.929 90.512C120.015 90.467 120.109 90.417 120.21 90.362C126.063 87.191 132.771 86.033 139.355 87.011C139.898 87.092 140.434 87.166 140.964 87.236C138.145 89.429 134.958 91.738 131.546 93.83Z" fill="white"/>
<path opacity="0.42" d="M138.722 98.475C140.962 96.915 143.214 95.202 145.489 93.393C149.574 90.144 154.482 88.136 159.662 87.502C160.043 87.456 160.418 87.406 160.786 87.353C153.862 94.464 146.446 98.207 138.722 98.475Z" fill="white"/>
</g>
<path opacity="0.38" d="M47.072 43.638C50.605 43.57 53.996 43.293 57.447 42.889C60.895 42.489 64.369 41.899 67.894 41.234C74.946 39.908 82.15 37.964 89.584 35.911C97.019 33.868 104.684 31.714 112.697 30.072C120.685 28.438 129.082 27.292 137.535 27.428C145.946 27.587 154.263 28.743 162.174 31.075C168.523 32.948 174.624 35.487 180.238 38.758C187.293 40.27 194.105 42.608 200.352 45.93C200.484 46.002 200.573 46.146 200.566 46.306C200.555 46.529 200.366 46.7 200.144 46.689C197.831 46.59 195.542 46.535 193.272 46.518C198.839 47.408 204.27 48.85 209.401 50.963C209.534 51.019 209.633 51.149 209.641 51.303C209.652 51.517 209.487 51.7 209.272 51.711C207.467 51.811 205.68 51.936 203.907 52.084C204.706 52.246 205.502 52.425 206.292 52.625C206.403 52.654 206.498 52.745 206.526 52.866C206.565 53.034 206.464 53.197 206.301 53.23C204.185 53.671 202.119 54.166 200.078 54.69L200.719 58.291C200.831 58.24 200.936 58.179 201.049 58.129L206.621 62.697C206.414 62.843 206.211 62.988 206.011 63.133L210.232 64.435C206.087 69.967 205.267 73.563 202.126 82.869C204.174 67.782 193.638 75.076 193.638 75.076C196.419 61.778 187.414 68.385 181.783 73.139C182.718 72.088 183.689 71.06 184.68 70.045C179.662 74.449 174.052 80.3 166.047 88.661C166.377 86.8 165.017 82.609 142.138 88.978C142.138 88.978 144.193 80.878 121.304 84.263C121.304 84.263 125.414 75.397 99.463 75.075C99.463 75.075 103.573 66.612 71.537 61.898C71.537 61.898 71.538 61.883 71.538 61.855C72.507 61.656 73.475 61.449 74.447 61.227C77.832 60.457 81.222 59.495 84.654 58.454C85.184 58.294 85.716 58.123 86.247 57.955C81.529 59.324 76.671 60.545 71.641 61.464C71.599 61.471 71.556 61.477 71.514 61.485C71.27 59.373 68.549 49.634 39.527 43.554C42.039 43.668 44.556 43.691 47.072 43.638Z" fill="#177153"/>
<path d="M166.385 26.952C126.063 20.176 86.93 46.744 59.998 46.726C59.998 46.726 77.342 68.021 110.472 52.698C139.918 39.08 150.515 33.976 167.578 33.401L166.385 26.952Z" fill="#177153"/>
<path opacity="0.32" d="M76.341 50.442C85.7 53.743 96.337 52.691 107.979 47.306L110.293 46.236C123.909 39.936 133.611 35.446 142.065 32.434C127.229 34.147 112.715 38.992 99.371 43.448C91.393 46.112 83.664 48.693 76.341 50.442Z" fill="white"/>
<path d="M188.639 28.655C147.797 26.723 112.102 57.757 85.359 60.942C85.359 60.942 105.112 80.023 136.185 60.868C163.802 43.844 173.717 37.516 190.59 34.916L188.639 28.655Z" fill="#177153"/>
<path opacity="0.32" d="M102.028 62.688C111.713 64.853 122.149 62.542 133.068 55.811L135.238 54.473C148.008 46.598 157.108 40.986 165.143 36.99C150.616 40.456 136.782 46.993 124.062 53.003C116.459 56.598 109.091 60.08 102.028 62.688Z" fill="white"/>
<path d="M187.754 31.813C189.335 32.785 190.869 33.832 192.34 34.964C193.628 35.955 194.857 37.023 196.032 38.147C186.473 43.033 177.521 50.648 160.575 64.842C134.619 86.585 113.932 71.716 113.932 71.716C134.373 66.203 158.039 41.481 187.754 31.813Z" fill="#177153"/>
<path opacity="0.32" d="M129.467 71.087C138.647 71.777 147.917 68.259 157.038 60.618L158.851 59.1C169.518 50.162 177.119 43.792 183.959 39.048C171.089 44.175 159.266 52.027 148.395 59.248C141.897 63.565 135.601 67.747 129.467 71.087Z" fill="white"/>
<path d="M195.481 37.638C197.174 39.202 198.756 40.884 200.148 42.722C201.099 43.978 201.956 45.301 202.719 46.676C196.875 51.994 190.196 59.032 180.722 68.945C157.458 93.288 135.587 80.668 135.587 80.668C153.083 73.834 171.533 51.387 195.481 37.638Z" fill="#177153"/>
<path opacity="0.32" d="M150.79 78.414C159.885 78.138 168.632 73.668 176.807 65.114L178.432 63.414C187.992 53.407 194.804 46.276 201.037 40.841C188.917 47.288 178.108 56.336 168.17 64.656C162.23 69.631 156.473 74.45 150.79 78.414Z" fill="white"/>
<path opacity="0.42" d="M153.21 42.671C112.238 42.905 73.052 58.47 32.824 42.996C37.56 43.571 42.316 43.738 47.073 43.639C50.606 43.571 53.997 43.293 57.448 42.89C59.785 42.619 62.135 42.256 64.503 41.846C62.649 41.945 60.787 42.023 58.905 42.046C53.277 42.142 47.496 41.702 41.8 40.6C38.957 40.022 36.143 39.269 33.401 38.339C30.658 37.411 28.006 36.257 25.451 34.98C20.344 32.402 15.7 29.183 11.509 25.609C7.32802 22.012 -0.271979 12.671 0.102021 12.115C6.26502 15.864 19.933 22.72 29.304 25.444C38.667 28.231 48.16 28.424 57.929 27.132C60.372 26.823 62.833 26.424 65.312 25.966C67.793 25.532 70.293 25.046 72.811 24.521L88.146 21.246C98.514 19.047 109.188 17.095 120.007 15.896C125.412 15.259 130.858 14.848 136.309 14.589C137.673 14.54 139.036 14.472 140.401 14.44C141.762 14.402 143.115 14.358 144.57 14.371C147.423 14.344 150.306 14.476 153.187 14.691C158.959 15.172 164.775 16.166 170.485 17.887C176.187 19.606 181.778 22.059 186.893 25.358C189.452 26.998 191.882 28.851 194.135 30.888C196.39 32.92 198.502 35.103 200.36 37.47C203.572 41.466 206.128 45.878 208.065 50.447C208.51 50.619 208.96 50.781 209.401 50.962C209.534 51.018 209.633 51.148 209.641 51.302C209.652 51.516 209.487 51.699 209.272 51.71C209.045 51.722 208.822 51.739 208.596 51.752C208.739 52.115 208.889 52.476 209.025 52.84C211.044 58.267 212.208 63.867 212.64 69.423C212.851 72.203 212.883 74.975 212.722 77.722C212.556 80.464 212.236 83.2 211.583 85.846L211.581 85.854C211.545 85.997 211.433 86.114 211.28 86.149C211.064 86.198 210.849 86.062 210.801 85.846C209.65 80.723 208.116 75.848 206.234 71.213C205.377 73.174 204.636 75.331 203.726 78.07C199.185 65.464 186.36 42.481 153.21 42.671Z" fill="#5C5C5C"/>
<path d="M211.583 85.847C212.235 83.201 212.555 80.464 212.722 77.723C212.883 74.976 212.851 72.204 212.64 69.424C212.208 63.869 211.044 58.268 209.025 52.841C207.005 47.423 204.13 42.162 200.36 37.471C198.501 35.104 196.39 32.921 194.134 30.889C191.881 28.851 189.451 26.999 186.892 25.359C181.777 22.06 176.186 19.607 170.484 17.888C164.774 16.167 158.957 15.174 153.186 14.692C150.305 14.477 147.422 14.345 144.569 14.372C143.114 14.359 141.761 14.402 140.4 14.441C139.035 14.473 137.672 14.541 136.308 14.59C130.856 14.849 125.411 15.26 120.006 15.897C109.187 17.096 98.514 19.049 88.145 21.247L72.81 24.522C70.293 25.046 67.792 25.532 65.311 25.967C62.833 26.425 60.372 26.823 57.928 27.133C48.159 28.424 38.666 28.232 29.303 25.445C19.931 22.721 6.26401 15.865 0.101014 12.116C-0.272986 12.672 7.32701 22.013 11.508 25.61C15.699 29.184 20.343 32.404 25.45 34.981C28.004 36.259 30.657 37.413 33.4 38.34C36.141 39.271 38.955 40.023 41.799 40.601C47.496 41.702 53.276 42.143 58.904 42.047C61.721 42.012 64.507 41.88 67.26 41.689C70.01 41.474 72.726 41.192 75.414 40.888C80.794 40.299 86.049 39.501 91.245 38.772C101.632 37.269 111.79 35.847 121.955 34.925C127.037 34.484 132.11 34.115 137.19 33.88C138.46 33.832 139.729 33.764 141 33.731C142.274 33.692 143.555 33.652 144.736 33.638C147.155 33.574 149.543 33.655 151.924 33.733C161.409 34.21 170.568 35.94 178.658 39.82C186.777 43.616 193.787 49.731 199.185 57.769C200.547 59.765 201.767 61.889 202.947 64.078C204.083 66.283 205.172 68.561 206.12 70.924C208.057 75.646 209.625 80.621 210.8 85.85C210.849 86.066 211.063 86.202 211.279 86.153C211.432 86.119 211.545 86.001 211.58 85.858L211.583 85.847Z" fill="#177153"/>
<path opacity="0.45" d="M206.575 60.918C206.053 58.72 205.402 56.57 204.624 54.479C202.684 49.276 200.018 44.543 196.7 40.414C195.084 38.357 193.221 36.388 190.99 34.379C188.936 32.52 186.706 30.817 184.359 29.315C179.844 26.402 174.721 24.072 169.128 22.386C164.106 20.872 158.611 19.858 152.795 19.374C150.025 19.168 147.576 19.067 145.322 19.067L144.607 19.071L144.023 19.069C142.94 19.069 141.905 19.099 140.871 19.128L140.533 19.138C139.684 19.159 138.857 19.192 138.031 19.225L136.48 19.285C130.757 19.558 125.542 19.976 120.555 20.564C111.205 21.6 101.22 23.278 89.119 25.844L73.791 29.118C71.019 29.694 68.513 30.177 66.12 30.595C63.392 31.099 60.901 31.493 58.517 31.794C54.422 32.336 50.611 32.6 46.876 32.6C40.142 32.6 33.955 31.732 27.961 29.948C26.405 29.496 24.854 28.984 23.293 28.408C24.704 29.271 26.129 30.066 27.564 30.79C30.145 32.081 32.547 33.097 34.901 33.893C37.42 34.747 40.053 35.456 42.732 36.001C47.41 36.905 52.349 37.365 57.399 37.365C57.874 37.365 58.349 37.36 58.824 37.353C61.375 37.322 64.025 37.208 66.932 37.005C69.248 36.824 71.704 36.582 74.885 36.222C79.025 35.769 83.155 35.18 87.149 34.61C87.149 34.61 89.477 34.278 90.592 34.122C101.013 32.614 111.226 31.182 121.53 30.248C127.252 29.751 132.301 29.405 136.971 29.188L138.333 29.131C139.178 29.094 140.025 29.058 140.874 29.035L141.239 29.024C142.421 28.988 143.595 28.953 144.684 28.941C145.266 28.925 145.921 28.918 146.573 28.918C148.41 28.918 150.207 28.977 151.943 29.034L152.079 29.039C163.329 29.603 172.679 31.745 180.688 35.585C189.51 39.71 197.258 46.477 203.082 55.15C204.208 56.796 205.304 58.606 206.575 60.918Z" fill="#E6F8FF"/>
<path d="M269.805 123.335C269.562 120.642 268.91 117.973 267.747 115.441C266.598 112.916 264.887 110.562 262.768 108.745C260.659 106.913 258.219 105.612 255.759 104.806C253.203 103.965 250.665 103.564 248.173 103.442V110.119C249.89 110.521 251.514 111.054 252.97 111.777C256.218 113.398 258.389 115.819 259.384 118.88C259.891 120.402 260.113 122.095 260.075 123.775C260.052 124.6 259.975 125.479 259.802 126.046C259.698 126.421 259.624 126.801 259.479 127.158L259.292 127.7L259.058 128.225C257.83 131.003 255.374 133.428 252.299 135.54C249.202 137.64 245.57 139.418 241.761 141.034C237.936 142.636 233.954 144.159 229.876 145.657C221.742 148.738 213.268 151.786 204.903 156.341C200.726 158.62 196.54 161.248 192.622 164.68C188.72 168.078 185.033 172.356 182.526 177.551C181.273 180.132 180.336 182.904 179.763 185.713C179.185 188.523 178.966 191.357 179.02 194.108C179.046 195.437 179.125 196.946 179.361 198.439C179.562 199.929 179.925 201.416 180.348 202.879C181.253 205.79 182.585 208.57 184.212 211.002C187.48 215.907 191.599 219.482 195.636 222.394C199.701 225.304 203.791 227.637 207.755 229.805C211.715 231.977 215.594 233.949 219.212 235.976C222.82 238 226.207 240.085 228.954 242.331C231.735 244.564 233.756 246.903 234.837 249.246C235.357 250.434 235.733 251.631 235.872 252.968C236.017 254.247 235.991 255.895 235.796 257.299C235.398 260.15 234.286 262.674 232.301 265.225C230.326 267.765 227.482 270.206 224.276 272.611C221.046 275.016 217.432 277.358 213.691 279.933C209.955 282.51 206.052 285.33 202.381 288.956C200.555 290.779 198.78 292.791 197.228 295.091C195.664 297.368 194.346 299.937 193.397 302.64C192.468 305.351 191.898 308.186 191.742 310.958C191.58 313.724 191.713 316.436 192.244 319.207C192.762 321.961 193.668 324.688 194.93 327.189C196.17 329.704 197.778 331.96 199.508 333.95C202.995 337.948 206.965 340.873 210.853 343.408C214.745 345.945 218.631 348.087 222.316 350.257C225.99 352.439 229.51 354.597 232.519 357.121C235.547 359.615 238.005 362.474 239.571 365.839C240.342 367.525 240.897 369.335 241.211 371.247C241.537 373.162 241.622 375.155 241.493 377.109C241.363 379.071 240.944 381.017 240.26 382.911C239.571 384.803 238.594 386.626 237.446 388.388C235.112 391.897 231.991 395.016 228.745 397.997C232.627 395.907 236.405 393.482 239.668 390.222C242.955 387.013 245.511 382.734 246.691 377.994C247.301 375.627 247.54 373.209 247.532 370.756C247.535 368.295 247.163 365.782 246.451 363.345C245.733 360.913 244.674 358.555 243.332 356.428C242.009 354.28 240.446 352.342 238.796 350.555C235.446 347.034 231.778 344.108 228.154 341.451C224.536 338.776 220.962 336.305 217.707 333.767C214.48 331.216 211.55 328.594 209.477 325.79C207.405 322.974 206.164 320.112 205.796 316.971C205.589 315.421 205.63 313.717 205.798 312.118C205.968 310.518 206.371 309.039 206.93 307.63C208.074 304.834 210.062 302.291 212.759 299.875C215.461 297.47 218.761 295.226 222.322 292.965C225.887 290.701 229.73 288.426 233.643 285.748C237.546 283.056 241.585 279.929 245.147 275.648C246.91 273.509 248.543 271.093 249.804 268.413C251.09 265.75 251.978 262.851 252.475 259.954C252.962 257.031 253.069 254.262 252.789 251.182C252.51 248.153 251.675 245.081 250.446 242.256C249.187 239.447 247.543 236.882 245.71 234.701C243.879 232.506 241.906 230.605 239.885 228.963C235.837 225.659 231.7 223.173 227.682 220.895C223.658 218.63 219.729 216.616 215.983 214.612C212.244 212.608 208.705 210.588 205.626 208.412C202.557 206.237 199.99 203.912 198.356 201.519C197.524 200.323 196.946 199.11 196.514 197.849C196.33 197.208 196.143 196.567 196.048 195.885C195.923 195.215 195.879 194.53 195.846 193.671C195.73 190.407 196.266 187.452 197.541 184.714C198.805 181.974 200.853 179.388 203.509 176.999C206.161 174.615 209.368 172.438 212.818 170.418C219.76 166.394 227.604 162.908 235.588 159.129C239.576 157.202 243.643 155.243 247.675 152.961C251.706 150.681 255.767 148.155 259.6 144.875C261.506 143.221 263.356 141.362 264.986 139.191C266.613 137.03 268.02 134.53 268.869 131.789L269.179 130.763L269.418 129.718C269.59 129.024 269.671 128.317 269.767 127.615C269.972 126.024 269.912 124.696 269.805 123.335Z" fill="#177153"/>
<path d="M227.682 220.897C226.673 220.329 225.67 219.777 224.674 219.237C222.169 220.752 219.675 222.284 217.195 223.84C214.469 225.55 211.729 227.235 208.995 228.932C208.557 229.204 208.124 229.489 207.69 229.771C207.711 229.783 207.732 229.795 207.753 229.806C211.713 231.978 215.592 233.95 219.21 235.977C221.421 237.217 223.547 238.481 225.495 239.79C226.019 239.405 226.552 239.049 227.048 238.724C228.743 237.611 230.54 236.673 232.265 235.611C234.92 233.977 237.619 232.414 240.341 230.894C240.705 230.691 241.072 230.493 241.437 230.292C240.923 229.833 240.405 229.39 239.883 228.966C235.837 225.661 231.7 223.175 227.682 220.897Z" fill="#177153"/>
<path d="M204.252 294.972C206.891 296.756 209.583 298.53 212.144 300.451C212.347 300.259 212.547 300.067 212.759 299.877C215.461 297.472 218.761 295.228 222.322 292.967C223.869 291.985 225.476 290.994 227.11 289.976C224.807 287.848 222.391 285.853 219.815 284.029C218.247 282.918 216.627 281.865 214.915 280.989C214.419 280.735 213.865 280.459 213.286 280.214C209.672 282.716 205.919 285.461 202.379 288.957C201.486 289.849 200.606 290.787 199.757 291.781C201.231 292.88 202.73 293.942 204.252 294.972Z" fill="#177153"/>
<path d="M225.643 352.281C226.167 351.865 233.888 346.813 234.448 346.429C232.382 344.638 230.262 342.998 228.156 341.453C226.34 340.11 224.535 338.819 222.775 337.544C219.386 339.767 216.117 342.166 213.008 344.767C216.173 346.728 219.312 348.49 222.315 350.258C223.445 350.93 224.552 351.603 225.643 352.281Z" fill="#177153"/>
<path d="M225.509 161.867C221.129 158.857 216.518 156.138 212.551 152.573C210 153.723 207.446 154.957 204.902 156.342C201.834 158.016 198.762 159.882 195.794 162.113C197.909 163.214 211.208 169.761 212.424 170.66C212.557 170.581 212.685 170.498 212.819 170.42C217.295 167.826 222.148 165.454 227.17 163.085C226.616 162.679 226.077 162.258 225.509 161.867Z" fill="#177153"/>
<g opacity="0.46">
<path d="M269.805 123.335C269.562 120.642 268.91 117.973 267.747 115.441C266.598 112.916 264.887 110.562 262.768 108.745C260.659 106.913 258.219 105.612 255.759 104.806C253.203 103.965 250.665 103.564 248.173 103.442V110.119C249.89 110.521 251.514 111.054 252.97 111.777C256.218 113.398 258.389 115.819 259.384 118.88C259.891 120.402 260.113 122.095 260.075 123.775C260.052 124.6 259.975 125.479 259.802 126.046C259.698 126.421 259.624 126.801 259.479 127.158L259.292 127.7L259.058 128.225C257.83 131.003 255.374 133.428 252.299 135.54C249.202 137.64 245.57 139.418 241.761 141.034C237.936 142.636 233.954 144.159 229.876 145.657C221.742 148.738 213.268 151.786 204.903 156.341C200.726 158.62 196.54 161.248 192.622 164.68C188.72 168.078 185.033 172.356 182.526 177.551C181.273 180.132 180.336 182.904 179.763 185.713C179.185 188.523 178.966 191.357 179.02 194.108C179.046 195.437 179.125 196.946 179.361 198.439C179.562 199.929 179.925 201.416 180.348 202.879C181.253 205.79 182.585 208.57 184.212 211.002C187.48 215.907 191.599 219.482 195.636 222.394C199.701 225.304 203.791 227.637 207.755 229.805C211.715 231.977 215.594 233.949 219.212 235.976C222.82 238 226.207 240.085 228.954 242.331C231.735 244.564 233.756 246.903 234.837 249.246C235.357 250.434 235.733 251.631 235.872 252.968C236.017 254.247 235.991 255.895 235.796 257.299C235.398 260.15 234.286 262.674 232.301 265.225C230.326 267.765 227.482 270.206 224.276 272.611C221.046 275.016 217.432 277.358 213.691 279.933C209.955 282.51 206.052 285.33 202.381 288.956C200.555 290.779 198.78 292.791 197.228 295.091C195.664 297.368 194.346 299.937 193.397 302.64C192.468 305.351 191.898 308.186 191.742 310.958C191.58 313.724 191.713 316.436 192.244 319.207C192.762 321.961 193.668 324.688 194.93 327.189C196.17 329.704 197.778 331.96 199.508 333.95C202.995 337.948 206.965 340.873 210.853 343.408C214.745 345.945 218.631 348.087 222.316 350.257C225.99 352.439 229.51 354.597 232.519 357.121C235.547 359.615 238.005 362.474 239.571 365.839C240.342 367.525 240.897 369.335 241.211 371.247C241.537 373.162 241.622 375.155 241.493 377.109C241.363 379.071 240.944 381.017 240.26 382.911C239.571 384.803 238.594 386.626 237.446 388.388C235.112 391.897 231.991 395.016 228.745 397.997C232.627 395.907 236.405 393.482 239.668 390.222C242.955 387.013 245.511 382.734 246.691 377.994C247.301 375.627 247.54 373.209 247.532 370.756C247.535 368.295 247.163 365.782 246.451 363.345C245.733 360.913 244.674 358.555 243.332 356.428C242.009 354.28 240.446 352.342 238.796 350.555C235.446 347.034 231.778 344.108 228.154 341.451C224.536 338.776 220.962 336.305 217.707 333.767C214.48 331.216 211.55 328.594 209.477 325.79C207.405 322.974 206.164 320.112 205.796 316.971C205.589 315.421 205.63 313.717 205.798 312.118C205.968 310.518 206.371 309.039 206.93 307.63C208.074 304.834 210.062 302.291 212.759 299.875C215.461 297.47 218.761 295.226 222.322 292.965C225.887 290.701 229.73 288.426 233.643 285.748C237.546 283.056 241.585 279.929 245.147 275.648C246.91 273.509 248.543 271.093 249.804 268.413C251.09 265.75 251.978 262.851 252.475 259.954C252.962 257.031 253.069 254.262 252.789 251.182C252.51 248.153 251.675 245.081 250.446 242.256C249.187 239.447 247.543 236.882 245.71 234.701C243.879 232.506 241.906 230.605 239.885 228.963C235.837 225.659 231.7 223.173 227.682 220.895C223.658 218.63 219.729 216.616 215.983 214.612C212.244 212.608 208.705 210.588 205.626 208.412C202.557 206.237 199.99 203.912 198.356 201.519C197.524 200.323 196.946 199.11 196.514 197.849C196.33 197.208 196.143 196.567 196.048 195.885C195.923 195.215 195.879 194.53 195.846 193.671C195.73 190.407 196.266 187.452 197.541 184.714C198.805 181.974 200.853 179.388 203.509 176.999C206.161 174.615 209.368 172.438 212.818 170.418C219.76 166.394 227.604 162.908 235.588 159.129C239.576 157.202 243.643 155.243 247.675 152.961C251.706 150.681 255.767 148.155 259.6 144.875C261.506 143.221 263.356 141.362 264.986 139.191C266.613 137.03 268.02 134.53 268.869 131.789L269.179 130.763L269.418 129.718C269.59 129.024 269.671 128.317 269.767 127.615C269.972 126.024 269.912 124.696 269.805 123.335ZM267.44 127.319L267.398 127.629C267.324 128.176 267.254 128.694 267.14 129.157L266.911 130.162L266.624 131.11C265.923 133.369 264.74 135.618 263.112 137.779C261.745 139.6 260.094 141.34 258.063 143.102C254.153 146.449 250.034 148.932 246.521 150.919C242.628 153.123 238.642 155.049 234.787 156.911L234.568 157.016C233.061 157.728 231.544 158.438 230.037 159.144C223.51 162.197 217.345 165.082 211.641 168.388C207.66 170.719 204.489 172.963 201.939 175.254C198.97 177.925 196.772 180.777 195.41 183.731C193.994 186.771 193.368 190.053 193.5 193.755C193.537 194.723 193.589 195.481 193.73 196.263C193.845 197.059 194.051 197.777 194.233 198.412L194.293 198.612C194.829 200.176 195.527 201.566 196.428 202.862C198.1 205.311 200.742 207.829 204.268 210.329C207.743 212.785 211.761 215.015 214.875 216.684C216.018 217.296 217.176 217.908 218.35 218.527C221.008 219.931 223.758 221.383 226.531 222.944C230.979 225.466 234.702 227.767 238.4 230.785C240.429 232.434 242.281 234.257 243.907 236.208C245.668 238.305 247.187 240.728 248.304 243.22C249.457 245.871 250.203 248.709 250.451 251.401C250.709 254.233 250.616 256.83 250.16 259.572C249.689 262.318 248.835 265.027 247.691 267.396C246.608 269.695 245.147 271.964 243.337 274.159C239.801 278.408 235.779 281.428 232.311 283.819C229.658 285.635 227.018 287.274 224.465 288.859C223.309 289.578 222.174 290.282 221.065 290.987C217.88 293.009 214.217 295.439 211.199 298.126C208.102 300.901 205.997 303.719 204.759 306.746C204.067 308.489 203.647 310.16 203.465 311.875C203.256 313.868 203.258 315.688 203.471 317.287C203.872 320.717 205.221 323.968 207.588 327.186C209.529 329.811 212.2 332.409 216.254 335.614C218.363 337.258 220.535 338.826 222.834 340.486C224.128 341.42 225.442 342.369 226.762 343.344C229.741 345.529 233.6 348.502 237.098 352.178C238.826 354.051 240.22 355.854 241.335 357.664C242.576 359.631 243.535 361.76 244.201 364.014C244.856 366.26 245.189 368.531 245.185 370.758C245.193 373.206 244.943 375.379 244.418 377.413C244.146 378.506 243.79 379.584 243.357 380.632C243.601 379.513 243.761 378.389 243.835 377.268C243.98 375.077 243.876 372.921 243.525 370.858C243.184 368.779 242.571 366.758 241.705 364.867C240.069 361.352 237.555 358.231 234.011 355.313C230.862 352.671 227.248 350.46 223.514 348.242C222.503 347.646 221.485 347.057 220.455 346.462C217.733 344.888 214.92 343.26 212.135 341.445C208.722 339.219 204.762 336.405 201.276 332.409C199.503 330.369 198.074 328.263 197.034 326.153C195.888 323.882 195.032 321.338 194.55 318.776C194.078 316.312 193.926 313.803 194.085 311.099C194.227 308.574 194.757 305.916 195.617 303.405C196.471 300.974 197.698 298.555 199.163 296.425C200.467 294.492 202.058 292.6 204.039 290.622C207.681 287.024 211.619 284.218 215.023 281.87C216.185 281.071 217.336 280.293 218.467 279.527C221.011 277.807 223.414 276.183 225.677 274.498C229.593 271.561 232.285 269.075 234.154 266.669C236.401 263.781 237.661 260.907 238.119 257.627C238.341 256.04 238.373 254.2 238.203 252.707C238.054 251.264 237.667 249.858 236.987 248.307C235.749 245.624 233.547 243.013 230.422 240.504C227.934 238.469 224.826 236.439 220.36 233.932C218.335 232.797 216.278 231.705 214.102 230.55C212.389 229.64 210.644 228.715 208.883 227.75C205.054 225.655 200.966 223.326 197.002 220.487C192.208 217.03 188.763 213.601 186.164 209.702C184.651 207.441 183.415 204.843 182.589 202.185C182.14 200.627 181.848 199.323 181.686 198.127C181.496 196.923 181.397 195.649 181.366 194.065C181.313 191.343 181.546 188.693 182.062 186.189C182.601 183.55 183.467 180.992 184.638 178.579C186.754 174.194 189.958 170.116 194.164 166.454C197.421 163.602 201.189 161.046 206.028 158.406C213.461 154.358 221.054 151.497 228.397 148.729L230.709 147.856C235.43 146.122 239.237 144.641 242.669 143.203C247.268 141.251 250.743 139.436 253.618 137.486C257.353 134.922 259.902 132.129 261.207 129.178L261.479 128.566L261.682 127.978C261.83 127.6 261.92 127.243 261.993 126.953L262.065 126.677C262.263 126.036 262.389 125.062 262.423 123.842C262.47 121.838 262.189 119.87 261.612 118.14C260.429 114.497 257.802 111.566 254.02 109.678C252.958 109.151 251.803 108.7 250.523 108.315V106.011C252.091 106.221 253.579 106.561 255.027 107.038C257.334 107.794 259.478 108.998 261.229 110.519C263.055 112.084 264.567 114.119 265.612 116.415C266.615 118.598 267.238 120.996 267.468 123.547C267.573 124.898 267.607 126.013 267.44 127.319Z" fill="#177153"/>
</g>
<path opacity="0.3" d="M196.952 212.764C196.973 212.744 196.993 212.724 197.014 212.703C198.228 211.517 198.224 209.565 197.017 208.371C195.761 207.13 194.705 205.887 193.86 204.649C192.791 203.113 191.964 201.471 191.333 199.63L191.28 199.472L191.224 199.275C191.028 198.593 190.784 197.745 190.642 196.779C190.472 195.829 190.411 194.928 190.371 193.867C190.221 189.659 190.94 185.913 192.566 182.419C193.621 180.134 195.102 177.918 196.984 175.801C197.951 174.713 197.934 173.071 196.905 172.041L196.856 171.992C195.753 170.889 193.952 170.894 192.905 172.034C190.619 174.523 188.792 177.171 187.453 179.945C186.397 182.123 185.614 184.435 185.128 186.817C184.659 189.095 184.447 191.513 184.497 194.002C184.524 195.434 184.612 196.572 184.774 197.597L184.789 197.704C184.929 198.736 185.186 199.882 185.592 201.296C186.331 203.657 187.43 205.962 188.77 207.964C189.868 209.612 191.144 211.173 192.637 212.694C193.817 213.897 195.745 213.942 196.952 212.764Z" fill="white"/>
<path opacity="0.3" d="M209.467 333.916C207.689 332.235 206.253 330.647 205.064 329.039C202.367 325.373 200.829 321.659 200.366 317.699C200.119 315.855 200.114 313.784 200.35 311.542C200.563 309.539 201.055 307.584 201.86 305.558C202.511 303.965 203.365 302.431 204.43 300.939C205.038 300.087 204.837 298.903 203.972 298.312L203.932 298.285C203.045 297.68 201.843 297.937 201.295 298.849C200.305 300.496 199.104 302.915 198.577 304.416C197.808 306.659 197.335 309.032 197.208 311.279C197.065 313.72 197.202 315.982 197.625 318.195C198.054 320.471 198.818 322.741 199.84 324.766C200.763 326.635 202.039 328.514 203.634 330.349C204.679 331.546 205.776 332.629 206.893 333.621C207.599 334.249 208.624 334.377 209.452 333.923C209.458 333.921 209.463 333.918 209.467 333.916Z" fill="white"/>
<path opacity="0.3" d="M247.333 251.687C247.115 249.321 246.462 246.833 245.447 244.5C244.446 242.267 243.083 240.093 241.502 238.212C241.35 238.029 241.195 237.847 241.038 237.667C239.926 236.39 237.989 236.248 236.706 237.354L236.658 237.395C235.339 238.532 235.215 240.527 236.372 241.828C237.854 243.497 239.009 245.212 239.817 246.962L239.855 247.047C240.669 248.905 241.134 250.593 241.315 252.351C241.513 254.091 241.478 256.224 241.221 258.057C240.691 261.851 239.188 265.295 236.627 268.586C235.548 269.974 234.234 271.375 232.625 272.845C231.341 274.018 231.401 275.864 232.763 276.946C232.777 276.957 232.792 276.969 232.806 276.98C233.811 277.777 235.245 277.753 236.217 276.915C237.828 275.526 239.429 273.959 240.922 272.165C242.566 270.171 243.894 268.11 244.872 266.034C245.89 263.924 246.651 261.509 247.073 259.056C247.488 256.55 247.569 254.277 247.333 251.687Z" fill="white"/>
<path opacity="0.3" d="M255.374 140.076C252.326 142.142 248.673 144.053 243.877 146.09C241.363 147.143 238.657 148.215 235.563 149.385C234.92 149.628 234.487 150.245 234.487 150.933C234.487 152.158 235.771 152.956 236.872 152.417C239.574 151.092 242.303 149.709 244.979 148.195C248.361 146.282 252.318 143.899 256.011 140.738C257.874 139.124 259.378 137.541 260.611 135.897C260.97 135.421 261.303 134.941 261.611 134.46C260.037 136.433 257.97 138.292 255.374 140.076Z" fill="white"/>
<path d="M258.048 109.654C258.048 113.148 252.383 115.98 245.395 115.98C238.723 115.98 232.573 113.606 232.031 110.35C231.989 110.096 232.156 109.858 232.409 109.81C238.423 108.661 240.063 103.392 246.896 103.392C253.883 103.392 258.048 106.159 258.048 109.654Z" fill="#177153"/>
<path opacity="0.46" d="M255.902 111.261C251.493 111.186 252.504 114.578 246.243 114.578C245.002 114.578 241.779 114.405 240.626 113.942C239.349 113.429 238.289 112.339 237.119 111.632C235.987 110.948 234.781 110.458 233.467 110.265C232.987 110.194 232.505 110.158 232.021 110.138C232.329 113.501 238.58 115.98 245.395 115.98C250.835 115.98 255.459 114.26 257.247 111.852C256.849 111.559 256.41 111.269 255.902 111.261Z" fill="#177153"/>
<path d="M240.208 108.187C240.855 108.048 241.394 107.846 241.816 107.65C241.81 107.645 241.802 107.642 241.796 107.637C242.596 107.067 243.612 106.553 244.52 106.179C245.5 105.775 247.187 105.538 247.292 106.532C247.384 107.404 245.594 107.971 245.098 108.081C244.381 108.241 243.386 108.254 242.593 108.019C241.482 108.197 240.208 108.187 240.208 108.187Z" fill="#177153"/>
<path d="M207.844 341.454C204.221 344.111 200.552 347.037 197.202 350.558C195.552 352.345 193.99 354.283 192.666 356.431C191.324 358.558 190.266 360.916 189.548 363.348C188.836 365.786 188.465 368.299 188.467 370.759C188.459 373.211 188.698 375.63 189.308 377.997C190.488 382.737 193.044 387.016 196.331 390.225C199.595 393.485 203.373 395.91 207.254 398C204.008 395.018 200.887 391.9 198.554 388.391C197.406 386.629 196.429 384.806 195.74 382.914C195.057 381.02 194.637 379.074 194.507 377.112C194.378 375.158 194.463 373.165 194.789 371.25C195.103 369.339 195.657 367.528 196.429 365.842C197.995 362.477 200.452 359.617 203.481 357.124C206.491 354.599 210.011 352.442 213.684 350.259C214.286 349.904 214.901 349.549 215.513 349.194L215.247 336.065C212.861 337.823 210.367 339.589 207.844 341.454Z" fill="#177153"/>
<path d="M215.248 336.065C213.658 337.237 212.012 338.423 210.35 339.628V352.286C211.443 351.606 212.552 350.932 213.685 350.259C214.287 349.904 214.902 349.549 215.514 349.194L215.248 336.065Z" fill="#177153"/>
<path opacity="0.46" d="M212.486 348.24C208.751 350.458 205.138 352.669 201.989 355.311C198.446 358.229 195.931 361.35 194.295 364.865C193.429 366.756 192.816 368.777 192.475 370.856C192.125 372.919 192.02 375.075 192.165 377.266C192.239 378.387 192.399 379.511 192.643 380.63C192.21 379.581 191.854 378.504 191.582 377.41C191.058 375.376 190.807 373.203 190.815 370.755C190.812 368.528 191.144 366.257 191.799 364.011C192.465 361.757 193.424 359.628 194.665 357.661C195.78 355.851 197.174 354.048 198.902 352.175C202.4 348.499 206.259 345.525 209.238 343.341C210.558 342.366 211.872 341.417 213.166 340.483C213.897 339.955 214.597 339.444 215.305 338.929L215.247 336.064C212.86 337.823 210.366 339.588 207.843 341.453C204.22 344.11 200.551 347.036 197.201 350.557C195.551 352.344 193.989 354.282 192.665 356.43C191.323 358.557 190.265 360.915 189.547 363.347C188.835 365.785 188.464 368.298 188.466 370.758C188.458 373.21 188.697 375.629 189.307 377.996C190.487 382.736 193.043 387.015 196.33 390.224C199.594 393.484 203.372 395.909 207.253 397.999C204.007 395.017 200.886 391.899 198.553 388.39C197.405 386.628 196.428 384.805 195.739 382.913C195.056 381.019 194.636 379.073 194.506 377.111C194.377 375.157 194.462 373.164 194.788 371.249C195.102 369.338 195.656 367.527 196.428 365.841C197.994 362.476 200.451 359.616 203.48 357.123C206.49 354.598 210.01 352.441 213.683 350.258C214.285 349.903 214.9 349.548 215.512 349.193L215.457 346.509C214.459 347.088 213.469 347.661 212.486 348.24Z" fill="#177153"/>
<path d="M228.958 28.191L221.653 388.217C221.612 390.234 219.944 391.836 217.926 391.795C215.961 391.755 214.39 390.163 214.348 388.217L207.043 28.191C206.92 22.14 211.726 17.134 217.778 17.011C223.829 16.888 228.835 21.695 228.958 27.746C228.96 27.881 228.96 28.058 228.958 28.191Z" fill="#177153"/>
<path d="M217.989 388.665C217.714 388.66 217.484 388.427 217.478 388.148L210.173 28.128C210.085 23.812 213.525 20.229 217.842 20.142L218.006 20.14C222.233 20.14 225.742 23.581 225.829 27.81C225.831 27.914 225.83 28.041 225.829 28.137L218.524 388.153C218.518 388.435 218.284 388.665 218.002 388.665H217.989Z" fill="#177153"/>
<path opacity="0.52" d="M218.727 172.923C217.594 172.353 216.263 173.207 216.289 174.475L218 259.587L219.711 174.492C219.724 173.834 219.351 173.235 218.763 172.94C218.751 172.935 218.739 172.929 218.727 172.923Z" fill="white"/>
<path opacity="0.52" d="M217.024 146.386C218.525 147.122 220.283 146.045 220.317 144.373L222.289 46.286C222.324 44.569 220.954 43.159 219.253 43.159H216.749C215.047 43.159 213.678 44.569 213.713 46.286L215.684 144.347C215.701 145.207 216.198 145.982 216.97 146.36C216.987 146.368 217.006 146.377 217.024 146.386Z" fill="white"/>
<path d="M218 37.844C226.645 37.844 233.653 34.5152 233.653 30.409C233.653 26.3028 226.645 22.974 218 22.974C209.355 22.974 202.347 26.3028 202.347 30.409C202.347 34.5152 209.355 37.844 218 37.844Z" fill="#177153"/>
<path d="M231.265 30.036C231.265 33.322 225.326 35.986 218 35.986C210.674 35.986 204.735 33.322 204.735 30.036C204.735 26.75 210.674 24.086 218 24.086C225.326 24.086 231.265 26.75 231.265 30.036Z" fill="#177153"/>
<g opacity="0.44">
<path d="M229.357 30.646C228.817 31.547 227.909 32.19 226.997 32.704C226.066 33.206 225.078 33.59 224.067 33.873C223.059 34.176 222.023 34.343 220.988 34.496C219.948 34.606 218.904 34.667 217.86 34.663C215.775 34.623 213.678 34.38 211.668 33.747C210.663 33.442 209.682 33.03 208.768 32.491C207.876 31.946 206.98 31.238 206.569 30.266C207.302 30.996 208.208 31.39 209.14 31.696C210.067 32.012 211.032 32.211 211.997 32.383C213.935 32.7 215.905 32.844 217.875 32.847C219.845 32.864 221.816 32.744 223.762 32.469C224.733 32.321 225.703 32.144 226.647 31.867C227.6 31.605 228.519 31.252 229.357 30.646Z" fill="white"/>
</g>
<path d="M218 28.752C225.94 28.752 232.376 22.3156 232.376 14.376C232.376 6.43635 225.94 0 218 0C210.06 0 203.624 6.43635 203.624 14.376C203.624 22.3156 210.06 28.752 218 28.752Z" fill="#177153"/>
<path opacity="0.42" d="M218 0C210.06 0 203.624 6.436 203.624 14.376C203.624 22.316 210.06 28.752 218 28.752C225.94 28.752 232.376 22.316 232.376 14.376C232.376 6.436 225.94 0 218 0ZM218.1 24.559C211.566 24.559 206.27 19.262 206.27 12.729C206.27 6.195 211.567 0.898998 218.1 0.898998C224.634 0.898998 229.93 6.196 229.93 12.729C229.93 19.262 224.633 24.559 218.1 24.559Z" fill="#7D7D7D"/>
<path opacity="0.18" d="M218.2 20.466C222.997 20.466 226.886 16.6891 226.886 12.03C226.886 7.37092 222.997 3.59399 218.2 3.59399C213.403 3.59399 209.514 7.37092 209.514 12.03C209.514 16.6891 213.403 20.466 218.2 20.466Z" fill="white"/>
<path opacity="0.48" d="M225.306 5.531C226.333 7.31 226.024 9.412 224.616 10.225C223.207 11.038 221.233 10.255 220.205 8.476C219.178 6.697 219.487 4.595 220.896 3.782C222.304 2.969 224.279 3.752 225.306 5.531Z" fill="white"/>
<path opacity="0.48" d="M228.801 12.448C229.564 13.77 229.141 15.444 227.855 16.187C226.569 16.929 224.908 16.459 224.144 15.137C223.381 13.815 223.804 12.141 225.09 11.399C226.377 10.656 228.038 11.126 228.801 12.448Z" fill="white"/>
<path d="M244.259 310.959C244.103 308.187 243.533 305.352 242.604 302.641C241.655 299.938 240.337 297.369 238.773 295.092C237.221 292.792 235.447 290.78 233.62 288.957C231.067 286.435 228.402 284.307 225.758 282.376C224.601 281.53 223.447 280.718 222.31 279.934C219.421 277.945 216.613 276.095 213.994 274.249C213.222 273.704 212.461 273.16 211.725 272.613C208.52 270.208 205.675 267.767 203.7 265.227C201.715 262.676 200.604 260.152 200.205 257.301C200.009 255.896 199.984 254.249 200.129 252.97C200.268 251.634 200.643 250.436 201.164 249.248C202.246 246.904 204.266 244.566 207.047 242.333C208.344 241.273 209.79 240.25 211.329 239.251V219.241C210.332 219.781 209.33 220.328 208.317 220.898C204.299 223.176 200.162 225.662 196.114 228.966C194.093 230.609 192.119 232.509 190.289 234.704C188.457 236.886 186.812 239.45 185.553 242.259C184.324 245.084 183.489 248.156 183.21 251.185C182.929 254.265 183.036 257.034 183.523 259.957C184.02 262.854 184.908 265.752 186.194 268.415C187.455 271.095 189.088 273.512 190.851 275.65C194.413 279.931 198.453 283.058 202.355 285.75C206.268 288.428 210.11 290.703 213.676 292.967C213.913 293.118 214.146 293.268 214.381 293.419C217.671 295.528 220.717 297.632 223.239 299.877C224.006 300.565 224.71 301.264 225.359 301.975C226.992 303.762 228.249 305.632 229.067 307.632C229.626 309.041 230.029 310.519 230.199 312.119C230.367 313.718 230.408 315.422 230.201 316.972C229.833 320.113 228.592 322.974 226.52 325.791C226.008 326.484 225.443 327.165 224.834 327.838L222.82 329.542L222.498 344.895L224.51 343.809C224.722 343.673 224.933 343.547 225.145 343.409C229.033 340.874 233.003 337.948 236.49 333.951C238.22 331.961 239.828 329.705 241.068 327.19C242.331 324.689 243.236 321.962 243.754 319.208C244.288 316.437 244.421 313.725 244.259 310.959Z" fill="#177153"/>
<path d="M211.329 219.248C210.627 219.629 209.929 220.004 209.221 220.397V240.687C209.899 240.203 210.605 239.726 211.329 239.253V219.248Z" fill="#177153"/>
<g opacity="0.46">
<path opacity="0.65" d="M232.536 311.873C232.354 310.158 231.934 308.488 231.242 306.744C230.091 303.929 228.178 301.295 225.427 298.708C225.22 298.513 225.019 298.318 224.802 298.124C221.784 295.437 218.121 293.008 214.936 290.985C214.737 290.859 214.526 290.73 214.325 290.603C213.407 290.025 212.483 289.447 211.535 288.857C208.982 287.273 206.342 285.633 203.689 283.817C200.221 281.425 196.199 278.405 192.663 274.157C190.853 271.962 189.392 269.693 188.309 267.394C187.165 265.025 186.311 262.316 185.84 259.57C185.384 256.829 185.291 254.231 185.549 251.399C185.797 248.706 186.543 245.869 187.696 243.218C188.813 240.726 190.332 238.303 192.093 236.206C193.719 234.255 195.571 232.432 197.6 230.783C201.298 227.765 205.022 225.464 209.469 222.942C210.093 222.591 210.709 222.26 211.329 221.922V219.239C210.332 219.779 209.33 220.326 208.317 220.896C204.299 223.174 200.162 225.66 196.114 228.964C194.093 230.607 192.119 232.507 190.289 234.702C188.457 236.884 186.812 239.448 185.553 242.257C184.324 245.082 183.489 248.154 183.21 251.183C182.929 254.263 183.036 257.032 183.523 259.955C184.02 262.852 184.908 265.75 186.194 268.413C187.455 271.093 189.088 273.51 190.851 275.648C194.413 279.929 198.453 283.056 202.355 285.748C206.268 288.426 210.11 290.701 213.676 292.965C213.913 293.116 214.146 293.266 214.381 293.417C217.671 295.526 220.717 297.63 223.239 299.875C224.006 300.563 224.71 301.262 225.359 301.973C226.992 303.76 228.249 305.63 229.067 307.63C229.626 309.039 230.029 310.517 230.199 312.117C230.367 313.716 230.408 315.42 230.201 316.97C229.833 320.111 228.592 322.972 226.52 325.789C226.008 326.482 225.443 327.163 224.834 327.836L222.821 329.54L222.74 332.99L224.764 331.279C226.228 329.864 227.418 328.526 228.411 327.182C230.778 323.964 232.126 320.713 232.527 317.283C232.743 315.686 232.746 313.866 232.536 311.873Z" fill="#177153"/>
<path opacity="0.65" d="M244.259 310.959C244.103 308.187 243.533 305.352 242.604 302.641C241.655 299.938 240.337 297.369 238.773 295.092C237.221 292.792 235.447 290.78 233.62 288.957C231.067 286.435 228.402 284.307 225.758 282.376C224.601 281.53 223.447 280.718 222.31 279.934C219.421 277.945 216.613 276.095 213.994 274.249C213.222 273.704 212.461 273.16 211.725 272.613C208.52 270.208 205.675 267.767 203.7 265.227C201.715 262.676 200.604 260.152 200.205 257.301C200.009 255.896 199.984 254.249 200.129 252.97C200.268 251.634 200.643 250.436 201.164 249.248C202.246 246.904 204.266 244.566 207.047 242.333C208.344 241.273 209.79 240.25 211.329 239.251V236.469C209.032 237.894 207.169 239.199 205.577 240.502C202.453 243.011 200.25 245.622 199.012 248.305C198.332 249.857 197.945 251.262 197.796 252.705C197.626 254.198 197.658 256.038 197.88 257.625C198.338 260.905 199.598 263.778 201.845 266.667C203.715 269.072 206.406 271.559 210.322 274.496C211.524 275.391 212.771 276.27 214.051 277.154C215.183 277.935 216.338 278.719 217.532 279.525C218.663 280.29 219.814 281.068 220.976 281.867C222.47 282.898 224.069 284.024 225.699 285.259C227.782 286.838 229.917 288.601 231.961 290.619C233.942 292.596 235.534 294.489 236.837 296.422C238.302 298.552 239.529 300.972 240.383 303.402C241.243 305.914 241.772 308.572 241.915 311.097C242.074 313.801 241.922 316.31 241.449 318.774C240.967 321.336 240.112 323.881 238.965 326.151C237.925 328.261 236.496 330.367 234.723 332.407C231.472 336.133 227.816 338.824 224.569 340.976L222.556 342.204L222.51 344.897C224.186 344.002 224.934 343.548 225.146 343.409C229.034 340.874 233.004 337.948 236.491 333.951C238.221 331.961 239.829 329.705 241.069 327.19C242.332 324.689 243.237 321.962 243.755 319.208C244.288 316.437 244.421 313.725 244.259 310.959Z" fill="#177153"/>
</g>
<path opacity="0.52" d="M238.791 311.279C238.664 309.032 238.191 306.659 237.422 304.416C236.662 302.253 235.567 300.1 234.258 298.194C233.06 296.418 231.587 294.667 229.751 292.835C228.41 291.511 227.017 290.295 225.621 289.167C223.421 287.389 221.215 285.833 219.201 284.444C218.063 283.661 216.933 282.897 215.823 282.146L215.748 282.095C215.194 281.721 214.672 281.361 214.131 280.993C212.169 279.66 210.266 278.354 208.454 277.005C204.304 273.893 201.421 271.219 199.375 268.586C196.814 265.295 195.311 261.851 194.781 258.057C194.524 256.224 194.489 254.09 194.687 252.351C194.868 250.593 195.333 248.905 196.147 247.047L196.185 246.962C197.279 244.592 199.002 242.286 201.319 240.074C202.689 238.766 203.444 236.938 203.444 235.044C203.444 233.049 201.128 231.949 199.582 233.21C197.706 234.734 195.997 236.416 194.5 238.213C192.919 240.094 191.557 242.268 190.555 244.501C189.54 246.834 188.887 249.321 188.669 251.688C188.433 254.278 188.514 256.551 188.93 259.058C189.351 261.511 190.112 263.925 191.131 266.036C192.109 268.113 193.437 270.173 195.081 272.167C198.367 276.117 202.177 278.971 205.47 281.242C208.066 283.019 210.67 284.637 213.189 286.2C213.551 286.424 213.895 286.642 214.252 286.865C215.047 287.359 215.845 287.855 216.616 288.343C219.445 290.14 222.644 292.254 225.512 294.616C225.979 295 226.439 295.39 226.885 295.787C230.346 298.888 232.72 302.084 234.141 305.56C234.945 307.586 235.438 309.54 235.65 311.544C235.886 313.786 235.881 315.857 235.634 317.701C235.171 321.661 233.633 325.375 230.936 329.041C230.077 330.202 229.093 331.353 227.942 332.535C227.25 333.246 226.873 334.208 226.873 335.2V335.489C228.745 334.027 230.628 332.344 232.365 330.352C233.96 328.517 235.236 326.637 236.159 324.769C237.181 322.744 237.945 320.474 238.374 318.198C238.797 315.982 238.934 313.721 238.791 311.279Z" fill="white"/>
<path d="M256.239 185.714C255.666 182.905 254.728 180.133 253.476 177.552C250.969 172.357 247.282 168.079 243.38 164.681C239.462 161.249 235.276 158.621 231.099 156.342C230.183 155.843 229.265 155.369 228.346 154.904C222.686 152.039 217.002 149.78 211.427 147.661C209.648 146.985 207.878 146.321 206.126 145.657C202.048 144.159 198.066 142.636 194.241 141.034C190.432 139.417 186.8 137.64 183.703 135.54C180.628 133.428 178.173 131.003 176.945 128.225L176.711 127.7L176.524 127.158C176.379 126.801 176.305 126.421 176.201 126.046C176.027 125.479 175.951 124.6 175.928 123.775C175.889 122.095 176.112 120.402 176.619 118.88C177.613 115.819 179.784 113.398 183.033 111.777C184.489 111.054 186.113 110.52 187.83 110.119V103.443C185.339 103.564 182.8 103.966 180.244 104.807C177.785 105.613 175.345 106.914 173.236 108.746C171.117 110.562 169.406 112.917 168.257 115.441C167.094 117.973 166.442 120.642 166.199 123.335C166.091 124.696 166.031 126.024 166.235 127.617C166.332 128.319 166.413 129.026 166.585 129.72L166.824 130.765L167.134 131.79C167.984 134.531 169.391 137.031 171.017 139.192C172.647 141.364 174.497 143.223 176.403 144.876C180.236 148.157 184.297 150.682 188.328 152.962C192.361 155.244 196.427 157.203 200.415 159.13C204.262 160.951 208.074 162.704 211.77 164.482C215.746 166.394 219.588 168.334 223.185 170.42C224.85 171.395 226.455 172.409 227.972 173.463C229.598 174.592 231.123 175.768 232.495 177.001C235.151 179.39 237.199 181.976 238.463 184.716C239.737 187.454 240.274 190.409 240.158 193.673C240.125 194.532 240.081 195.217 239.956 195.887C239.861 196.57 239.673 197.21 239.49 197.852C239.059 199.112 238.48 200.326 237.648 201.521C236.014 203.914 233.446 206.239 230.378 208.414C229.376 209.122 228.311 209.809 227.221 210.489L225.246 211.409L224.863 231.511C224.863 231.511 227.768 230.071 228.25 229.806C232.214 227.638 236.304 225.305 240.369 222.395C244.406 219.483 248.524 215.908 251.793 211.002C253.421 208.57 254.753 205.79 255.657 202.879C256.08 201.416 256.443 199.93 256.644 198.439C256.88 196.946 256.959 195.438 256.985 194.109C257.036 191.358 256.816 188.524 256.239 185.714Z" fill="#177153"/>
<path opacity="0.46" d="M256.239 185.714C255.666 182.905 254.728 180.133 253.476 177.552C250.969 172.357 247.282 168.079 243.38 164.681C239.462 161.249 235.276 158.621 231.099 156.342C230.183 155.843 229.265 155.369 228.346 154.904C222.686 152.039 217.002 149.78 211.427 147.661C209.648 146.985 207.878 146.321 206.126 145.657C202.048 144.159 198.066 142.636 194.241 141.034C190.432 139.417 186.8 137.64 183.703 135.54C180.628 133.428 178.173 131.003 176.945 128.225L176.711 127.7L176.524 127.158C176.379 126.801 176.305 126.421 176.201 126.046C176.027 125.479 175.951 124.6 175.928 123.775C175.889 122.095 176.112 120.402 176.619 118.88C177.613 115.819 179.784 113.398 183.033 111.777C184.489 111.054 186.113 110.52 187.83 110.119V103.443C185.339 103.564 182.8 103.966 180.244 104.807C177.785 105.613 175.345 106.914 173.236 108.746C171.117 110.562 169.406 112.917 168.257 115.441C167.094 117.973 166.442 120.642 166.199 123.335C166.091 124.696 166.031 126.024 166.235 127.617C166.332 128.319 166.413 129.026 166.585 129.72L166.824 130.765L167.134 131.79C167.984 134.531 169.391 137.031 171.017 139.192C172.647 141.364 174.497 143.223 176.403 144.876C180.236 148.157 184.297 150.682 188.328 152.962C192.361 155.244 196.427 157.203 200.415 159.13C204.262 160.951 208.074 162.704 211.77 164.482C215.746 166.394 219.588 168.334 223.185 170.42C224.85 171.395 226.455 172.409 227.972 173.463C229.598 174.592 231.123 175.768 232.495 177.001C235.151 179.39 237.199 181.976 238.463 184.716C239.737 187.454 240.274 190.409 240.158 193.673C240.125 194.532 240.081 195.217 239.956 195.887C239.861 196.57 239.673 197.21 239.49 197.852C239.059 199.112 238.48 200.326 237.648 201.521C236.014 203.914 233.446 206.239 230.378 208.414C229.376 209.122 228.311 209.809 227.221 210.489L225.246 211.412L225.186 214.436C225.291 214.373 227.375 213.157 227.48 213.094C228.925 212.22 230.372 211.294 231.737 210.329C235.263 207.83 237.904 205.311 239.577 202.862C240.478 201.566 241.177 200.176 241.712 198.612L241.772 198.413C241.954 197.778 242.16 197.059 242.275 196.264C242.416 195.482 242.468 194.725 242.505 193.756C242.637 190.054 242.011 186.772 240.595 183.732C239.232 180.778 237.035 177.926 234.065 175.255C232.355 173.718 230.356 172.201 228.029 170.666C226.888 169.913 225.674 169.156 224.363 168.389C220.366 166.073 216.132 163.964 211.717 161.859C209.831 160.959 207.921 160.059 205.967 159.145C204.46 158.439 202.943 157.729 201.436 157.017L201.217 156.912C197.363 155.049 193.377 153.124 189.483 150.92C185.97 148.934 181.85 146.45 177.941 143.103C175.909 141.341 174.259 139.601 172.892 137.78C171.264 135.619 170.081 133.37 169.38 131.111L169.093 130.163L168.864 129.158C168.749 128.695 168.68 128.177 168.606 127.63L168.564 127.32C168.397 126.014 168.431 124.899 168.538 123.547C168.768 120.996 169.391 118.598 170.394 116.415C171.439 114.119 172.951 112.084 174.777 110.519C176.528 108.997 178.671 107.794 180.979 107.038C182.428 106.562 183.916 106.222 185.483 106.012V108.315C184.202 108.7 183.047 109.15 181.985 109.678C178.203 111.566 175.576 114.497 174.393 118.14C173.816 119.87 173.536 121.838 173.582 123.842C173.616 125.062 173.742 126.035 173.94 126.677L174.012 126.953C174.085 127.243 174.175 127.6 174.323 127.978L174.526 128.566L174.798 129.178C176.103 132.129 178.652 134.922 182.387 137.486C185.262 139.436 188.737 141.251 193.336 143.203C196.768 144.641 200.575 146.122 205.296 147.856L207.608 148.729C208.891 149.213 210.184 149.702 211.48 150.198C217.043 152.323 222.704 154.618 228.295 157.525C228.856 157.817 229.417 158.102 229.977 158.406C234.816 161.046 238.584 163.602 241.841 166.454C246.046 170.116 249.25 174.194 251.367 178.579C252.538 180.991 253.404 183.55 253.943 186.188C254.458 188.693 254.692 191.343 254.639 194.065C254.608 195.649 254.508 196.923 254.319 198.126C254.157 199.321 253.866 200.625 253.416 202.184C252.589 204.842 251.354 207.44 249.84 209.701C247.241 213.601 243.796 217.029 239.002 220.487C235.038 223.326 230.951 225.654 227.121 227.75C227.036 227.796 224.993 228.821 224.908 228.867L224.84 231.558C225.319 231.299 227.768 230.072 228.25 229.808C232.214 227.64 236.304 225.307 240.369 222.397C244.406 219.485 248.524 215.91 251.793 211.004C253.421 208.572 254.753 205.792 255.657 202.881C256.08 201.418 256.443 199.932 256.644 198.441C256.88 196.948 256.959 195.44 256.985 194.111C257.036 191.358 256.816 188.524 256.239 185.714Z" fill="#177153"/>
<path opacity="0.52" d="M250.872 186.817C250.386 184.435 249.603 182.123 248.547 179.945C246.613 175.939 243.665 172.195 239.781 168.813C236.699 166.114 233.106 163.679 228.474 161.152C228.39 161.106 228.305 161.065 228.221 161.02C222.73 158.052 217.1 155.718 211.545 153.575C209.86 152.925 208.181 152.29 206.515 151.663L204.184 150.783C199.438 149.04 195.604 147.548 192.122 146.09C187.326 144.053 183.673 142.143 180.625 140.076C178.029 138.292 175.962 136.433 174.388 134.459C174.695 134.94 175.029 135.42 175.388 135.896C176.622 137.54 178.126 139.123 179.988 140.737C183.68 143.899 187.637 146.281 191.019 148.194C194.838 150.356 198.771 152.255 202.575 154.092L202.794 154.197C204.26 154.891 205.76 155.593 207.251 156.291C208.737 156.986 210.196 157.67 211.641 158.354C216.646 160.721 221.412 163.062 225.928 165.681C226.681 166.122 227.398 166.56 228.098 166.996C231.277 168.98 233.932 170.931 236.152 172.926C239.439 175.882 241.889 179.076 243.432 182.419C245.059 185.913 245.777 189.659 245.627 193.867C245.587 194.928 245.526 195.829 245.356 196.779C245.214 197.744 244.97 198.593 244.774 199.275L244.718 199.472L244.665 199.63C244.034 201.471 243.207 203.114 242.138 204.649C240.265 207.394 237.371 210.165 233.54 212.881C233.489 212.917 233.438 212.953 233.386 212.989C232.544 213.58 232.027 214.53 232.027 215.559C232.027 218.079 234.873 219.572 236.928 218.113C237.01 218.055 237.091 217.997 237.173 217.939C241.649 214.711 244.845 211.54 247.228 207.963C248.568 205.961 249.667 203.656 250.406 201.295C250.812 199.882 251.07 198.735 251.209 197.703L251.224 197.596C251.386 196.571 251.473 195.433 251.501 194.001C251.553 191.513 251.341 189.095 250.872 186.817Z" fill="white"/>
<path d="M177.952 109.654C177.952 113.148 183.617 115.98 190.605 115.98C197.277 115.98 203.427 113.606 203.969 110.35C204.011 110.096 203.843 109.858 203.591 109.81C197.577 108.661 195.937 103.392 189.104 103.392C182.117 103.392 177.952 106.159 177.952 109.654Z" fill="#177153"/>
<path opacity="0.46" d="M180.098 111.261C184.507 111.186 183.496 114.578 189.757 114.578C190.998 114.578 194.22 114.405 195.374 113.942C196.651 113.429 197.711 112.339 198.881 111.632C200.013 110.948 201.219 110.458 202.533 110.265C203.013 110.194 203.495 110.158 203.979 110.138C203.671 113.501 197.42 115.98 190.605 115.98C185.165 115.98 180.541 114.26 178.753 111.852C179.151 111.559 179.59 111.269 180.098 111.261Z" fill="#177153"/>
<path d="M194.424 108.187C193.777 108.048 193.238 107.846 192.816 107.65C192.822 107.645 192.83 107.642 192.837 107.637C192.037 107.067 191.021 106.553 190.113 106.179C189.133 105.775 187.446 105.538 187.342 106.532C187.25 107.404 189.04 107.971 189.536 108.081C190.253 108.241 191.248 108.254 192.041 108.019C193.151 108.197 194.424 108.187 194.424 108.187Z" fill="#177153"/>
</svg>
