<svg width="24" height="24" viewBox="0 0 24 24" fill="none" xmlns="http://www.w3.org/2000/svg">
<g clip-path="url(#clip0_1_226)">
<path d="M23.543 13.0304C23.2383 13.3348 22.8711 13.487 22.4414 13.487C22.0117 13.487 21.6484 13.3387 21.3516 13.0421L21 12.6909V22.5016C21 22.9075 20.8555 23.2587 20.5664 23.5553C20.2773 23.8518 19.9219 24.0001 19.5 24.0001H15V17.2567C15 17.0538 14.9258 16.8782 14.7773 16.7299C14.6289 16.5816 14.4531 16.5075 14.25 16.5075H9.75C9.54688 16.5075 9.37109 16.5816 9.22266 16.7299C9.07422 16.8782 9 17.0538 9 17.2567V24.0001H4.5C4.07812 24.0001 3.72266 23.8518 3.43359 23.5553C3.14453 23.2587 3 22.9075 3 22.5016V12.6909L2.64844 13.0421C2.35156 13.3387 1.98828 13.487 1.55859 13.487C1.12891 13.487 0.761719 13.3348 0.457031 13.0304C0.152344 12.726 0 12.3592 0 11.9299C0 11.5006 0.148438 11.1377 0.445312 10.8411L10.8516 0.445016C11.1641 0.132821 11.5469 -0.0154713 12 0.00013842C12.4531 -0.0154713 12.8359 0.132821 13.1484 0.445016L23.5547 10.8411C23.8516 11.1377 24 11.5006 24 11.9299C24 12.3592 23.8477 12.726 23.543 13.0304Z" fill="#006241"/>
</g>
<defs>
<clipPath id="clip0_1_226">
<rect width="24" height="24" fill="white"/>
</clipPath>
</defs>
</svg>
